<?xml version="1.0" encoding="UTF-8" standalone="no"?>
<!-- Created with Inkscape (http://www.inkscape.org/) -->

<svg
   xmlns:dc="http://purl.org/dc/elements/1.1/"
   xmlns:cc="http://creativecommons.org/ns#"
   xmlns:rdf="http://www.w3.org/1999/02/22-rdf-syntax-ns#"
   xmlns:svg="http://www.w3.org/2000/svg"
   xmlns="http://www.w3.org/2000/svg"
   xmlns:sodipodi="http://sodipodi.sourceforge.net/DTD/sodipodi-0.dtd"
   xmlns:inkscape="http://www.inkscape.org/namespaces/inkscape"
   id="svg2"
   version="1.1"
   inkscape:version="0.48.4 r9939"
   width="170"
   height="271.25"
   xml:space="preserve"
   sodipodi:docname="Vulture_05.eps"><metadata
     id="metadata8"><rdf:RDF><cc:Work
         rdf:about=""><dc:format>image/svg+xml</dc:format><dc:type
           rdf:resource="http://purl.org/dc/dcmitype/StillImage" /><dc:title></dc:title></cc:Work></rdf:RDF></metadata><defs
     id="defs6" /><sodipodi:namedview
     pagecolor="#ffffff"
     bordercolor="#666666"
     borderopacity="1"
     objecttolerance="10"
     gridtolerance="10"
     guidetolerance="10"
     inkscape:pageopacity="0"
     inkscape:pageshadow="2"
     inkscape:window-width="640"
     inkscape:window-height="480"
     id="namedview4"
     showgrid="false"
     inkscape:zoom="0.87004608"
     inkscape:cx="85"
     inkscape:cy="135.625"
     inkscape:window-x="0"
     inkscape:window-y="35"
     inkscape:window-maximized="0"
     inkscape:current-layer="g12" /><g
     id="g10"
     inkscape:groupmode="layer"
     inkscape:label="ink_ext_XXXXXX"
     transform="matrix(1.25,0,0,-1.25,0,271.25)"><g
       id="g12"
       transform="scale(0.1,0.1)"><path
         d="m 15.4102,178.543 c 22.1679,45.879 68.914,82.32 117.6368,97.027 88.668,26.344 184.355,14.707 276.535,20.637 87.57,5.707 175.141,12.512 262.711,13.828 75.934,1.102 152.094,-3.07 228.031,-6.805 64.742,-3.292 129.706,-5.046 193.796,-13.828 51.35,-7.246 107.32,-8.121 152.09,-34.683 44.77,-26.785 137.39,-77.711 103.59,-117.664 C 1283.52,58.4648 1160.18,54.293 1059.44,33.4375 957.605,12.3633 852.258,15.6563 748.227,12.582 610.18,8.62891 471.254,0.507813 333.645,12.582 232.688,21.3633 126.023,27.9492 36.2617,74.9258 4.875,91.1719 0.046875,146.93 15.4102,178.543"
         style="fill:#ffffff;fill-opacity:1;fill-rule:nonzero;stroke:none"
         id="path14" /><path
         d="m 34.7227,177.883 c 21.5078,44.562 66.9413,80.129 114.3433,94.176 86.036,25.687 179.09,14.488 268.637,20.199 84.938,5.488 170.09,12.293 255.027,13.39 73.961,1.094 147.922,-3.074 221.668,-6.804 62.766,-3.074 125.982,-4.614 188.082,-13.391 50.04,-7.027 104.47,-7.687 147.93,-33.59 43.46,-25.902 133.44,-75.297 100.74,-114.152 C 1266.63,61.3164 1146.79,57.1445 1048.91,36.9492 950.141,16.3125 847.648,19.6055 746.691,16.7539 612.594,12.8008 477.621,5.11719 343.738,16.7539 245.855,25.3164 142.266,31.6797 54.9141,77.1211 24.6289,93.1484 20.0195,147.152 34.7227,177.883"
         style="fill:#edeeea;fill-opacity:1;fill-rule:nonzero;stroke:none"
         id="path16" /><path
         d="m 54.0352,177.227 c 20.8515,43.246 64.9648,77.711 110.8358,91.32 83.617,25.023 173.82,14.051 260.953,19.758 82.52,5.265 165.043,11.855 247.563,12.953 71.769,1.097 143.316,-3.074 215.086,-6.586 61.011,-2.856 122.027,-4.613 182.597,-12.953 48.51,-6.805 101.18,-7.684 143.32,-32.711 42.36,-25.024 129.71,-73.102 97.88,-110.86 C 1249.72,64.1719 1133.4,60 1038.37,40.4609 942.465,20.4844 843.039,23.5586 744.938,20.9258 615.008,17.1914 483.984,9.50781 354.055,20.9258 259.023,29.0469 158.285,35.4141 73.7891,79.5391 44.1602,94.9023 39.7734,147.371 54.0352,177.227"
         style="fill:#deded7;fill-opacity:1;fill-rule:nonzero;stroke:none"
         id="path18" /><path
         d="m 73.3516,176.785 c 20.1914,41.711 63.2074,75.078 107.5394,88.469 80.988,24.148 168.554,13.609 252.836,18.879 80.105,5.269 160.211,11.637 240.101,12.73 69.57,0.883 139.145,-2.851 208.719,-6.363 59.035,-2.855 118.293,-4.391 176.893,-12.734 47.19,-6.582 98.33,-7.243 139.15,-31.61 41.04,-24.367 125.75,-70.906 94.81,-107.347 C 1232.82,66.8047 1120.02,62.8555 1027.84,43.9727 934.777,24.6563 838.434,27.7305 743.398,24.875 617.203,21.3633 490.348,13.8984 364.371,24.875 271.973,32.9961 174.527,38.9258 92.4453,81.7305 63.9141,96.6602 59.5234,147.59 73.3516,176.785"
         style="fill:#cfd0c6;fill-opacity:1;fill-rule:nonzero;stroke:none"
         id="path20" /><path
         d="m 92.8828,176.129 c 19.5312,40.391 61.0152,72.879 104.0312,85.613 78.57,23.488 163.285,13.172 244.93,18.438 77.695,5.05 155.168,11.199 232.64,12.297 67.379,0.875 134.758,-2.856 202.137,-6.149 57.063,-2.855 114.563,-4.39 171.409,-12.293 45.65,-6.367 95.25,-7.023 134.76,-30.515 39.72,-23.707 121.8,-68.93 91.95,-104.27 C 1215.93,69.6602 1106.63,65.9258 1017.52,47.4844 927.316,28.8281 833.82,31.6797 741.863,29.0469 619.617,25.5352 496.492,18.2891 374.465,29.0469 285.141,36.7305 190.77,42.6563 111.098,84.1484 83.4453,98.6367 79.2734,147.809 92.8828,176.129"
         style="fill:#c0c0b3;fill-opacity:1;fill-rule:nonzero;stroke:none"
         id="path22" /><path
         d="m 112.195,175.469 c 18.875,39.078 59.039,70.465 100.739,82.98 75.937,22.61 158.023,12.735 237.031,17.781 75.058,4.829 150.121,10.754 224.961,11.856 65.183,0.879 130.586,-2.856 195.551,-5.93 55.523,-2.851 111.05,-4.172 166.133,-11.851 44.12,-6.149 91.96,-7.028 130.37,-29.637 38.41,-23.051 117.86,-66.516 88.89,-100.762 -56.84,-67.3943 -162.63,-71.1247 -248.88,-89.1287 -87.353,-18 -177.775,-15.1445 -266.881,-17.7812 -118.296,-3.2891 -237.25,-10.3164 -355.328,0 -86.472,7.6836 -177.992,13.3906 -254.808,53.3477 -26.774,14.0472 -30.9457,61.9022 -17.778,89.1252"
         style="fill:#afb0a1;fill-opacity:1;fill-rule:nonzero;stroke:none"
         id="path24" /><path
         d="m 131.508,174.809 c 18.219,37.757 57.066,68.054 97.449,80.129 73.305,21.949 152.531,12.292 229.129,17.121 72.426,4.828 145.07,10.539 217.5,11.636 62.984,0.879 125.977,-2.636 188.961,-5.711 53.551,-2.632 107.324,-4.168 160.433,-11.632 42.8,-5.926 89.11,-6.586 126.2,-28.539 37.09,-22.172 113.69,-64.321 85.82,-97.465 C 1182.13,75.1445 1079.85,71.6328 996.453,54.293 911.953,36.9492 824.605,39.582 738.57,37.168 624.227,33.875 509.223,27.2891 395.098,37.168 311.477,44.4141 223.031,49.9023 148.629,88.7578 122.73,102.367 118.781,148.469 131.508,174.809"
         style="fill:#9ea090;fill-opacity:1;fill-rule:nonzero;stroke:none"
         id="path26" /><path
         d="m 150.824,174.152 c 17.559,36.442 55.09,65.856 93.934,77.493 70.89,21.074 147.484,11.851 221.449,16.464 70.012,4.61 140.023,10.098 209.816,11.196 61.012,0.656 121.805,-2.637 182.598,-5.711 51.797,-2.41 103.594,-3.731 154.949,-10.973 41.26,-5.711 86.04,-6.367 121.59,-27.66 35.99,-21.293 109.95,-62.125 83.18,-94.176 C 1165.23,78 1066.46,74.4883 985.918,57.8047 904.492,41.1211 819.996,43.7539 737.035,41.3398 c -110.394,-3.2929 -221.668,-9.6601 -331.844,0 -80.543,7.0235 -165.921,12.293 -237.906,49.8321 -25.019,12.9531 -28.75,57.5161 -16.461,82.9801"
         style="fill:#8f907f;fill-opacity:1;fill-rule:nonzero;stroke:none"
         id="path28" /><path
         d="m 704.773,2155.8 c 0,-6.15 5.266,-12.96 -1.097,-17.57 5.926,-4.6 13.828,-4.17 19.754,-8.56 12.289,-7.68 22.164,-23.05 30.504,-36 8.781,-21.29 14.925,-47.86 7.683,-72 36.653,-6.37 64.305,-36.67 73.961,-71.79 5.707,-30.29 7.902,-65.86 2.195,-96.81 -3.293,-12.51 -17.996,-17.34 -24.14,-28.32 -19.317,-25.46 -24.582,-58.39 -36.871,-87.15 -28.754,-102.74 -106.227,-182.42 -153.414,-277.47 -23.481,-23.06 -22.606,-56.42 -40.164,-81.67 -17.336,-34.46 -26.993,-72.23 -28.309,-113.28 0.219,-5.26 1.973,-9.87 4.387,-14.26 6.586,-1.32 5.926,7.9 12.074,7.68 8.996,0.22 15.801,13.39 25.894,5.49 5.489,-2.64 12.293,-8.78 18.657,-3.29 12.73,3.95 28.75,6.8 39.941,-2.2 l 0,-3.29 c -10.094,-1.1 -20.187,-1.98 -26.992,-10.76 -7.684,-7.68 -6.805,-18.88 -9.656,-28.32 10.531,1.98 26.554,1.98 35.773,-4.39 11.852,-14.49 16.238,-32.05 24.801,-48.07 21.508,-2.86 45.43,-7.03 68.695,-8.56 17.996,-7.25 41.481,-3.51 61.012,-7.47 30.945,-4.17 59.918,-9.22 88.008,-13.17 34.238,-5.93 70.234,-15.8 101.179,-33.59 16.902,-10.75 31.602,-21.29 46.742,-33.59 32.27,-19.31 50.7,-55.75 74.19,-84.074 l 0,0 2.19,2.414 0,0 c -4.39,58.62 7.03,119.2 37.97,167.28 10.1,10.76 24.8,26.56 41.48,19.54 8.78,-0.66 4.39,-11.64 11.85,-14.05 -3.07,-9.22 9.22,-12.29 8.78,-20.64 2.2,-16.02 10.97,-30.29 6.36,-47.63 -13.6,-5.27 -28.53,10.31 -41.26,-3.3 -22.82,-21.95 -39.72,-49.39 -43.67,-78.37 17.12,25.03 41.26,59.06 75.28,54.23 8.34,-2.42 17.34,-3.52 25.02,-7.47 l 0,0 16.46,-15.37 0,0 c -1.54,-32.05 -8.12,-61.899 -24.14,-88.024 -11.2,6.586 -19.1,19.976 -33.8,20.633 -23.49,4.613 -44.12,-12.071 -56.41,-30.512 7.24,-3.731 11.64,6.586 18.44,7.683 20.63,2.196 42.14,-1.097 56.62,-17.343 14.05,-19.539 23.05,-43.903 20.63,-69.809 -9.65,-15.805 -24.36,-36.879 -44.77,-39.293 -5.7,6.805 1.54,16.246 2.42,24.149 6.36,31.609 -12.51,55.757 -33.8,76.171 -5.49,3.075 -13.61,6.809 -19.54,2.196 13.61,-21.949 -13.82,-46.321 6.37,-64.321 2.63,-14.046 8.99,-29.636 3.51,-44.562 -7.46,-5.27 4.39,-10.316 1.98,-17.34 10.53,-15.808 6.8,-40.832 7.68,-57.738 14.92,-14.266 21.29,-36.66 19.53,-55.758 6.8,-2.855 3.07,-9.879 9.66,-12.953 -2.86,-7.684 0.87,-11.414 2.19,-18.438 -11.63,-12.515 -29.85,-9.441 -45.65,-12.953 -35.77,6.149 -79.45,7.465 -114.35,23.707 -7.68,0.66 -17.55,4.828 -20.41,-5.269 3.3,-25.903 -29.403,-40.828 -17.552,-66.293 l 0,0 -2.195,-28.32 0,0 c -8.996,-9.879 -24.801,-20.415 -18.219,-36 2.856,-13.395 8.782,-28.321 -1.316,-40.172 -8.996,-4.395 -13.387,-14.711 -17.336,-23.051 -0.879,-7.027 9.438,-12.293 14.043,-18.442 -6.363,-18.878 -6.145,-46.101 -31.383,-51.148 -6.804,-15.148 -18.875,-27.441 -22.824,-43.687 -7.465,-29.196 -1.977,-63.442 -18.656,-89.344 -3.074,-7.465 4.609,-8.344 8.558,-10.539 17.782,-0.438 27.438,-15.367 39.285,-26.344 17.559,-12.949 16.461,-36.438 15.145,-54.441 l 0,0 -14.047,-25.024 0,0 c -23.265,-11.195 -31.605,-35.344 -48.062,-51.1483 -4.172,-4.8321 -8.34,-8.7852 -12.731,-11.8555 -2.851,11.1953 -5.707,23.2698 -7.683,33.8048 0,5.707 -5.485,4.172 -8.778,5.488 -17.777,5.051 -32.48,22.176 -36.871,40.176 -0.656,6.367 0.438,9.656 -2.414,15.144 -6.144,-3.73 -17.117,-4.609 -17.336,-15.144 -7.023,-7.906 -11.855,-18.66 -19.535,-27.441 -15.801,-10.317 -34.676,-15.586 -53.332,-16.247 -6.145,-10.976 -14.703,-22.1714 -15.145,-33.8042 -1.972,-2.418 -4.386,-3.7344 -7.679,-3.293 -14.266,18.4372 -16.903,45.2192 -22.824,68.7112 -2.418,1.754 -4.829,5.047 -2.196,7.461 0.219,1.32 -0.66,1.757 -1.316,2.414 -6.586,-1.317 -10.977,-8.559 -17.34,-10.973 -9.875,-3.734 -22.387,-6.148 -31.606,1.098 -5.925,3.73 -9.214,10.754 -13.828,16.242 -18.652,3.074 -33.578,-11.633 -45.648,-25.024 -1.535,-7.683 -5.266,-16.023 -9.875,-21.734 -11.195,14.051 -1.316,34.246 -4.168,52.246 6.359,27.004 18.434,54.223 43.23,70.688 0.442,1.976 -0.652,4.39 1.321,5.488 -0.879,1.977 -3.074,0.879 -4.391,1.316 -3.289,-10.757 -14.484,-11.414 -23.922,-12.293 l 0,0 -8.558,9 0,0 c -12.731,-9 -29.629,5.489 -42.797,-5.488 -21.731,-1.758 -42.578,-6.586 -63.867,0 -13.829,-18.656 -37.313,-17.558 -53.332,-26.344 -9.875,-1.093 -18.657,3.954 -22.825,-7.461 0.657,-9.66 -9.218,-13.832 -15.582,-18.441 -21.949,-5.269 -42.359,-6.144 -59.699,9.879 -8.121,-4.609 -15.363,4.832 -22.824,-1.316 -12.731,-10.54 -21.289,-23.489 -29.41,-37.977 -12.95,7.023 -11.414,26.562 -9.875,39.293 1.754,0.66 0.879,2.852 1.097,4.172 -14.484,0.66 -29.191,-7.903 -36.871,-21.735 -3.511,-4.828 -5.484,-15.585 -12.07,-14.269 -10.316,22.172 0.219,49.176 6.586,70.687 16.016,23.051 28.531,48.516 55.523,60.153 11.414,5.926 17.118,23.926 31.387,25.023 16.457,7.684 34.895,3.949 51.137,-1.316 4.168,-6.149 13.168,-1.098 18.652,-4.172 12.512,-4.172 17.34,-22.828 33.801,-14.051 7.898,7.906 15.801,0.66 23.703,-2.414 20.629,6.586 47.406,-10.316 60.133,14.27 24.363,41.707 58.383,74.418 90.207,112.175 22.824,15.368 0.656,52.246 26.117,64.325 31.602,23.484 32.043,63.66 45.43,96.586 -2.414,19.757 20.41,34.027 15.363,53.343 -28.973,5.274 -52.016,25.469 -80.328,32.934 -41.918,16.683 -82.738,36.441 -123.125,57.512 -46.09,-5.707 -87.129,8.343 -128.172,17.343 -32.043,15.586 -67.156,26.125 -98.105,41.489 -44.332,20.636 -80.106,57.297 -95.688,103.398 -7.684,18 -13.168,45.219 3.293,60.809 19.75,23.925 50.258,43.465 82.52,42.367 27.214,7.685 68.476,3.075 80.546,36.005 7.684,16.02 14.047,34.02 29.411,44.78 -3.293,31.39 21.507,50.27 43.675,69.37 8.559,6.81 27.871,-1.54 22.825,17.56 0.878,43.91 11.851,91.98 32.699,131.71 13.168,37.11 35.554,70.69 46.531,108.89 12.945,23.27 18.875,49.17 28.309,73.98 6.586,34.03 21.293,64.54 18.656,102.3 -22.606,10.1 -19.75,39.07 -41.481,46.76 -16.019,14.92 -28.75,30.51 -42.355,44.78 -30.289,13.39 -63.211,19.54 -94.813,30.51 -33.8,1.76 -66.718,4.83 -101.179,5.49 -15.141,-3.95 -32.481,-6.37 -47.844,-6.81 -24.801,-6.14 -49.82,-12.73 -72.645,-23.7 -14.925,-3.08 -23.265,-21.52 -28.531,-32.93 -5.0467,-15.15 -12.5115,-30.73 -12.0701,-46.76 l -6.3633,0 0,0 c -44.9922,41.49 -68.9179,105.15 -46.9687,166.62 12.5078,38.19 26.7734,75.95 46.9687,111.08 21.2854,55.54 76.1564,95.05 130.5824,109.76 32.043,10.76 66.718,18.44 97.886,27.44 30.946,4.39 69.352,4.39 101.176,4.17 12.949,11.42 25.68,30.51 45.649,28.32 8.781,0 14.925,-5.27 22.828,-6.59 8.34,13.18 23.261,10.1 32.703,19.76 39.285,30.74 76.156,66.08 123.121,78.37 2.414,0 5.269,-0.44 6.144,2.2 0.661,7.9 -3.73,22.39 7.684,25.02 16.899,4.61 39.727,2.2 52.234,-10.75 l 0,0 z M 864.77,616.715 l 0,0 c -18.215,0.656 -37.75,11.633 -60.797,7.461 -13.825,-10.098 -21.067,-26.781 -31.821,-40.172 -15.804,-2.856 -12.07,-21.734 -17.339,-32.711 -6.364,-15.586 -24.583,-12.949 -34.676,-23.926 -8.34,-5.929 -8.782,-21.078 -21.731,-19.539 -7.019,-7.683 -14.922,-15.586 -23.922,-22.832 -4.386,-10.754 7.684,-17.34 5.27,-28.316 -4.828,-19.977 -26.336,-32.27 -44.336,-36.004 -8.559,-9.656 -22.605,-19.317 -25.02,-32.488 -21.289,-26.125 -22.824,-60.149 -49.16,-83.86 -1.758,-5.265 8.117,-7.465 12.289,-10.976 l 0,0 10.536,7.687 0,0 c 6.367,0.875 14.046,-1.101 18.656,-6.809 5.707,1.977 10.754,-4.39 17.336,-0.878 9.656,-4.168 16.679,-12.512 19.754,-21.95 4.828,4.391 11.414,5.266 17.121,7.684 17.117,5.047 36.648,5.488 50.039,-8.563 5.265,-24.804 30.504,7.903 39.285,-15.367 10.754,2.414 21.726,-4.609 32.699,-1.976 8.563,9.441 24.582,8.781 36.875,8.562 1.535,9.66 10.75,12.735 16.457,21.731 3.512,7.465 5.707,15.371 10.973,21.734 5.926,47.199 73.086,75.734 48.726,128.641 2.633,3.953 4.829,9.441 2.196,14.05 5.703,8.122 16.019,19.098 12.066,29.415 -9.433,25.246 -17.773,50.933 -25.019,77.273 0.66,13.832 -5.266,30.516 -7.68,45.664 -5.707,5.047 -0.66,13.168 -8.777,16.465"
         style="fill:#231f20;fill-opacity:1;fill-rule:nonzero;stroke:none"
         id="path30" /><path
         d="m 699.285,2151.19 c -0.437,-2.64 1.539,-6.15 -1.972,-7.69 -10.977,-5.71 -27.657,1.98 -41.485,-1.97 -5.265,3.29 -6.582,9.22 -4.387,14.27 12.95,10.97 30.946,2.41 44.551,-1.32 l 0,0 3.293,-3.29 0,0"
         style="fill:#837a6e;fill-opacity:1;fill-rule:nonzero;stroke:none"
         id="path32" /><path
         d="m 690.727,2132.96 c 8.558,-8.12 18.656,-2.63 28.093,-8.78 25.457,-17.56 34.895,-45.44 39.285,-72.88 2.415,-13.39 -14.925,-30.07 2.196,-38.19 28.75,0.21 50.039,-27.66 64.304,-50.28 7.68,-34.68 15.364,-74.85 4.168,-112.17 -4.605,-7.69 -14.261,-13.61 -21.507,-20.42 -33.36,-56.64 -39.067,-120.74 -74.18,-176.49 -18.438,-41.06 -50.699,-76.4 -71.77,-116.36 -29.187,-32.92 -38.187,-73.75 -64.086,-107.78 -10.312,-37.98 -34.015,-70.25 -40.164,-109.98 l 0,0 -3.293,-2.2 0,0 c -10.972,-40.61 -2.851,-78.37 5.489,-117.66 l 0,0 3.293,-3.07 0,0 c 3.511,-52.69 16.679,-105.82 -24.141,-143.57 -10.754,-4.4 -22.387,-9.88 -34.68,-7.69 -5.265,-5.49 -14.265,-0.44 -20.847,1.32 -18.657,15.15 -43.02,26.34 -53.332,49.83 -7.242,30.52 -26.996,61.03 -16.024,93.52 4.391,32.49 13.61,63.22 23.703,93.52 24.364,45.22 43.899,92.42 63.207,139.39 14.27,37.11 25.903,75.08 34.899,114.37 l 0,0 4.39,43.69 0,0 c 1.536,1.1 4.168,0.88 6.364,0.88 l 0,0 2.414,-2.19 0,0 c 1.976,2.41 6.367,5.48 3.074,8.78 -4.828,5.49 -10.754,-2.2 -16.242,2.19 -8.34,5.93 -19.75,13.61 -21.949,25.03 10.757,1.53 25.461,-4.84 30.507,8.56 -3.511,7.68 -8.339,-0.44 -13.168,0 -23.703,-4.83 -37.968,11.41 -50.917,28.31 24.8,-7.9 57.281,-17.55 82.742,-4.39 6.363,-4.16 7.679,5.93 11.851,9.01 13.606,55.54 7.684,123.81 -3.07,181.54 -8.563,70.69 -66.285,128.65 -119.836,174.31 -7.023,3.29 -13.605,8.56 -22.824,6.36 7.461,11.19 18.219,22.39 32.703,20.85 9.219,0.22 15.141,-7.9 25.019,-6.8 5.926,7.02 14.043,14.27 23.922,14.27 54.868,38.85 106.227,100.1 180.407,85.17 l 0,0"
         style="fill:#cfbeab;fill-opacity:1;fill-rule:nonzero;stroke:none"
         id="path34" /><path
         d="m 677.777,2115.18 c 30.727,-14.93 39.946,-46.1 37.969,-78.15 -6.363,-26.56 -36.871,-47.42 -63.207,-52.24 -21.07,-6.37 -44.113,-11.42 -68.476,-7.69 -18.215,7.9 -41.262,4.61 -55.309,23.93 -2.41,7.68 -13.387,13.39 -7.68,22.83 35.555,41.49 77.91,81.66 130.367,92.64 l 0,0 26.336,-1.32 0,0"
         style="fill:#231f20;fill-opacity:1;fill-rule:nonzero;stroke:none"
         id="path36" /><path
         d="m 678.656,2105.52 c 23.043,-12.07 31.824,-38.19 30.508,-64.32 -2.414,-18 -15.805,-25.68 -28.312,-37.97 -31.168,-14.49 -61.016,-21.96 -95.473,-18.44 -20.41,6.14 -45.649,7.46 -56.625,29.19 l 0,0 3.293,12.07 0,0 c 34.898,40.62 75.5,77.06 127.078,84.08 7.68,0.88 11.41,-6.8 19.531,-4.61 l 0,0"
         style="fill:#a7a1b4;fill-opacity:1;fill-rule:nonzero;stroke:none"
         id="path38" /><path
         d="m 673.387,2102.45 c 21.07,-11.19 29.191,-34.9 27.875,-58.83 -2.196,-16.46 -14.485,-23.49 -25.899,-34.91 -28.531,-12.95 -55.746,-19.97 -87.351,-16.68 -18.657,5.71 -41.699,6.81 -51.793,26.78 l 0,0 c 1.094,3.51 1.972,7.24 3.074,10.98 l 0,0 c 32.043,37.1 68.914,70.46 116.316,76.83 6.805,0.88 10.317,-6.14 17.778,-4.17 l 0,0"
         style="fill:#b1abbd;fill-opacity:1;fill-rule:nonzero;stroke:none"
         id="path40" /><path
         d="m 668.121,2099.38 c 19.094,-10.1 26.336,-31.61 25.238,-53.35 -1.972,-14.92 -13.168,-21.29 -23.484,-31.61 -25.676,-11.85 -50.477,-18.22 -79.23,-15.15 -16.895,5.05 -37.747,6.15 -46.747,24.15 l 0,0 c 0.879,3.29 1.754,6.59 2.633,9.88 l 0,0 c 28.973,33.81 62.551,64.1 105.348,69.81 6.367,0.66 9.437,-5.71 16.242,-3.73 l 0,0"
         style="fill:#bdb7c8;fill-opacity:1;fill-rule:nonzero;stroke:none"
         id="path42" /><path
         d="m 662.633,2096.09 c 17.34,-9 23.703,-28.32 22.828,-47.64 -1.977,-13.39 -11.852,-19.1 -21.07,-28.32 -23.047,-10.54 -45.211,-16.25 -70.891,-13.61 -15.363,4.61 -34.02,5.49 -42.137,21.73 l 0,0 c 0.875,2.86 1.754,5.93 2.41,8.78 l 0,0 c 26.122,30.3 56.188,57.3 94.375,62.57 5.707,0.65 8.559,-5.05 14.485,-3.51 l 0,0"
         style="fill:#c9c5d2;fill-opacity:1;fill-rule:nonzero;stroke:none"
         id="path44" /><path
         d="m 657.367,2093.01 c 15.145,-7.9 21.071,-25.03 19.973,-42.15 -1.535,-11.85 -10.317,-16.9 -18.438,-25.02 -20.41,-9.44 -40.164,-14.49 -62.769,-12.08 -13.387,3.95 -30.067,4.83 -37.309,19.1 l 0,0 c 0.875,2.64 1.535,5.27 2.192,7.9 l 0,0 c 23.047,26.79 49.605,50.72 83.621,55.33 5.047,0.65 7.461,-4.39 12.73,-3.08 l 0,0"
         style="fill:#d6d2dd;fill-opacity:1;fill-rule:nonzero;stroke:none"
         id="path46" /><path
         d="m 652.098,2089.94 c 13.172,-7.03 18.218,-21.73 17.34,-36.66 -1.317,-10.32 -8.997,-14.71 -16.02,-21.96 -17.777,-8.12 -34.898,-12.51 -54.648,-10.31 -11.633,3.51 -26.122,4.17 -32.266,16.68 l 0,0 c 0.66,2.2 1.316,4.61 1.976,6.81 l 0,0 c 19.973,23.27 43.016,44.12 72.645,48.07 4.172,0.44 6.367,-3.95 10.973,-2.63 l 0,0"
         style="fill:#e3e1e8;fill-opacity:1;fill-rule:nonzero;stroke:none"
         id="path48" /><path
         d="m 646.832,2086.86 c 11.191,-5.92 15.363,-18.65 14.703,-31.17 -1.094,-8.78 -7.68,-12.51 -13.824,-18.66 -14.926,-6.8 -29.41,-10.53 -46.09,-8.78 -10.094,2.86 -22.168,3.52 -27.652,14.05 l 0,0 c 0.656,1.98 1.097,3.95 1.754,5.93 l 0,0 c 16.898,19.75 36.652,37.54 61.89,40.83 3.512,0.44 5.489,-3.29 9.219,-2.2 l 0,0"
         style="fill:#f1f0f4;fill-opacity:1;fill-rule:nonzero;stroke:none"
         id="path50" /><path
         d="m 641.566,2083.79 c 9.215,-5.05 12.727,-15.36 12.071,-25.9 -0.879,-7.25 -6.367,-10.1 -11.196,-15.15 -12.289,-5.71 -24.359,-8.78 -38.187,-7.24 -8.121,2.41 -18.215,2.85 -22.606,11.63 l 0,0 1.317,4.83 0,0 c 14.047,16.25 30.066,30.73 50.918,33.59 3.074,0.43 4.609,-2.64 7.683,-1.76 l 0,0"
         style="fill:#ffffff;fill-opacity:1;fill-rule:nonzero;stroke:none"
         id="path52" /><path
         d="m 626.859,2034.84 c -0.437,-4.39 -3.511,-8.34 -6.804,-9.88 -3.071,-1.76 -6.364,2.85 -9.657,4.39 0.442,4.83 -5.484,6.58 -3.289,11.85 6.364,7.25 17.555,1.54 19.75,-6.36 l 0,0"
         style="fill:#231f20;fill-opacity:1;fill-rule:nonzero;stroke:none"
         id="path54" /><path
         d="m 460.059,1996.64 45.875,-43.47 0,0 c 20.847,-25.24 37.308,-52.68 48.941,-81.66 1.316,-10.31 6.141,-19.1 7.68,-29.42 10.754,-30.07 3.73,-63.44 11.851,-94.61 -0.437,-30.3 2.196,-56.64 -6.363,-85.18 -10.977,1.76 -21.07,12.52 -31.824,18.66 -7.684,5.27 -17.34,7.03 -23.703,15.37 l 0,0 -47.844,21.74 -4.613,4.38 0,0 c -25.676,5.5 -50.914,15.59 -77.032,16.25 -58.379,4.61 -115.004,-2.41 -173.164,-10.75 -29.191,-7.03 -55.965,-19.99 -81.644,-35.13 -5.707,-8.78 -20.192,-8.12 -19.754,-20.42 l 0,0 -7.461,-10.1 0,0 c -5.047,-16.46 -12.7306,-32.7 -17.5587,-49.83 -14.2656,13.17 -31.3828,34.47 -33.3594,55.32 l 0,0 -3.5117,3.51 0,0 c -17.3359,25.91 -3.7304,60.38 -1.9726,89.13 11.6289,49.61 35.1132,93.96 59.6954,138.52 33.578,61.47 103.808,76.84 161.969,99.01 52.234,18.44 108.422,13.83 165.484,12.73 9,-2.85 17.996,-6.37 25.238,-12.73 l 0,0 3.071,-1.32 0,0"
         style="fill:#978c7b;fill-opacity:1;fill-rule:nonzero;stroke:none"
         id="path56" /><path
         d="m 36.4805,1705.11 10.3125,57.08 22.3867,67.39 34.6753,65.64 24.145,37.98 57.063,29.41 98.542,36.23 67.379,10.53 84.715,0 15.582,-13.83 30.946,-32.93 25.898,-29.41 32.922,-67.4 -129.488,-32.92 -174.704,-13.83 -120.925,-53.57 -57.0667,-51.81 -22.3828,-8.56"
         style="fill:#978c7b;fill-opacity:1;fill-rule:nonzero;stroke:none"
         id="path58" /><path
         d="m 36.4805,1705.11 c 3.5117,18.88 6.8008,37.98 10.3125,57.08 7.4609,22.39 14.9258,44.78 22.3867,67.39 11.6328,21.73 23.0469,43.69 34.6753,65.64 8.122,12.73 16.024,25.24 24.145,37.98 19.094,9.88 37.969,19.53 57.063,29.41 32.921,12.08 65.621,24.15 98.542,36.23 22.387,3.51 44.993,7.02 67.379,10.53 28.313,0 56.403,0 84.715,0 5.051,-4.61 9.875,-9.22 14.926,-13.61 9.434,-9.88 19.094,-19.53 28.531,-29.42 7.899,-8.77 15.801,-17.55 23.703,-26.34 9.657,-19.75 19.313,-39.51 28.969,-59.27 -41.918,-9 -84.058,-18 -125.976,-27 -57.723,-5.93 -115.446,-12.07 -173.164,-18 -39.504,-20.42 -79.231,-40.61 -118.735,-61.03 -18.6561,-19.1 -37.0897,-38.2 -55.746,-57.29 -7.2422,-4.18 -14.4843,-8.12 -21.7265,-12.3"
         style="fill:#a29682;fill-opacity:1;fill-rule:nonzero;stroke:none"
         id="path60" /><path
         d="m 36.4805,1705.11 c 3.5117,18.88 6.8008,37.98 10.3125,57.08 7.4609,22.39 14.9258,44.78 22.3867,67.39 11.6328,21.73 23.0469,43.69 34.6753,65.64 8.122,12.73 16.024,25.24 24.145,37.98 19.094,9.88 37.969,19.53 57.063,29.41 32.921,12.08 65.621,24.15 98.542,36.23 22.387,3.51 44.993,7.02 67.379,10.53 28.313,0 56.403,0 84.715,0 4.828,-4.61 9.656,-9 14.485,-13.39 8.558,-8.56 17.121,-17.34 25.679,-25.9 7.242,-7.9 14.266,-15.59 21.508,-23.49 8.563,-17.13 16.902,-34.03 25.461,-51.15 -41.043,-7.03 -81.863,-14.05 -122.687,-21.08 -57.282,-7.24 -114.344,-14.7 -171.629,-22.17 -38.844,-22.83 -77.692,-45.66 -116.539,-68.27 -18.2153,-21.07 -36.4301,-41.93 -54.6489,-62.78 -6.8047,-5.27 -13.8242,-10.76 -20.8476,-16.03"
         style="fill:#aa9d87;fill-opacity:1;fill-rule:nonzero;stroke:none"
         id="path62" /><path
         d="m 36.4805,1705.11 c 3.5117,18.88 6.8008,37.98 10.3125,57.08 7.4609,22.39 14.9258,44.78 22.3867,67.39 11.6328,21.73 23.0469,43.69 34.6753,65.64 8.122,12.73 16.024,25.24 24.145,37.98 19.094,9.88 37.969,19.53 57.063,29.41 32.921,12.08 65.621,24.15 98.542,36.23 22.387,3.51 44.993,7.02 67.379,10.53 28.313,0 56.403,0 84.715,0 4.61,-4.39 9.219,-8.78 14.047,-13.17 7.684,-7.46 15.363,-14.93 22.824,-22.39 6.586,-6.81 12.95,-13.83 19.313,-20.64 7.242,-14.27 14.488,-28.53 21.73,-42.8 -39.726,-5.05 -79.449,-10.1 -119.175,-15.15 -56.625,-8.78 -113.465,-17.56 -170.09,-26.34 -38.188,-25.47 -76.16,-50.71 -114.344,-75.96 -17.7774,-22.61 -35.5548,-45.44 -53.3321,-68.05 -6.8047,-6.58 -13.3906,-13.17 -20.1914,-19.76"
         style="fill:#b3a58d;fill-opacity:1;fill-rule:nonzero;stroke:none"
         id="path64" /><path
         d="m 36.4805,1705.11 c 3.5117,18.88 6.8008,37.98 10.3125,57.08 7.4609,22.39 14.9258,44.78 22.3867,67.39 11.6328,21.73 23.0469,43.69 34.6753,65.64 8.122,12.73 16.024,25.24 24.145,37.98 19.094,9.88 37.969,19.53 57.063,29.41 32.921,12.08 65.621,24.15 98.542,36.23 22.387,3.51 44.993,7.02 67.379,10.53 28.313,0 56.403,0 84.715,0 4.391,-4.39 8.996,-8.56 13.61,-12.95 6.582,-6.37 13.386,-12.73 20.191,-18.88 5.703,-5.93 11.41,-11.85 16.898,-17.56 6.145,-11.64 12.071,-23.27 18.215,-34.91 -38.625,-3.07 -77.254,-6.14 -115.879,-9.21 -56.187,-10.1 -112.371,-20.42 -168.558,-30.52 -37.309,-27.66 -74.84,-55.54 -112.149,-83.2 -17.3395,-24.59 -34.6754,-49.17 -52.0153,-73.54 -6.582,-7.9 -13.1679,-15.8 -19.5312,-23.49"
         style="fill:#bcab8f;fill-opacity:1;fill-rule:nonzero;stroke:none"
         id="path66" /><path
         d="m 36.4805,1705.11 c 3.5117,18.88 6.8008,37.98 10.3125,57.08 7.4609,22.39 14.9258,44.78 22.3867,67.39 11.6328,21.73 23.0469,43.69 34.6753,65.64 8.122,12.73 16.024,25.24 24.145,37.98 19.094,9.88 37.969,19.53 57.063,29.41 32.921,12.08 65.621,24.15 98.542,36.23 22.387,3.51 44.993,7.02 67.379,10.53 28.313,0 56.403,0 84.715,0 4.391,-4.17 8.559,-8.56 12.949,-12.73 5.926,-5.05 11.852,-10.32 17.559,-15.59 5.047,-4.82 9.875,-9.66 14.926,-14.49 4.605,-8.77 9.433,-17.77 14.262,-26.56 -37.528,-1.1 -74.84,-2.19 -112.368,-3.29 -55.746,-11.64 -111.492,-23.27 -167.019,-34.91 -36.653,-30.07 -73.305,-60.36 -109.957,-90.66 -16.8987,-26.12 -33.7971,-52.46 -50.9182,-78.81 -6.1445,-9.22 -12.5078,-18.22 -18.6523,-27.22"
         style="fill:#c4b394;fill-opacity:1;fill-rule:nonzero;stroke:none"
         id="path68" /><path
         d="m 36.4805,1705.11 c 3.5117,18.88 6.8008,37.98 10.3125,57.08 7.4609,22.39 14.9258,44.78 22.3867,67.39 11.6328,21.73 23.0469,43.69 34.6753,65.64 8.122,12.73 16.024,25.24 24.145,37.98 19.094,9.88 37.969,19.53 57.063,29.41 32.921,12.08 65.621,24.15 98.542,36.23 22.387,3.51 44.993,7.02 67.379,10.53 28.313,0 56.403,0 84.715,0 4.168,-4.17 8.34,-8.34 12.512,-12.51 5.047,-3.95 9.875,-7.9 14.922,-12.07 4.172,-3.74 8.34,-7.69 12.512,-11.64 3.511,-6.15 7.023,-12.29 10.535,-18.44 -36.215,0.88 -72.426,1.75 -108.86,2.63 -55.09,-12.95 -110.394,-25.9 -165.703,-38.85 -35.773,-32.71 -71.547,-65.42 -107.543,-98.13 -16.4607,-28.09 -33.1404,-56.2 -49.5974,-84.51 -5.9258,-10.1 -12.0703,-20.42 -17.9961,-30.74"
         style="fill:#cdb998;fill-opacity:1;fill-rule:nonzero;stroke:none"
         id="path70" /><path
         d="m 36.4805,1705.11 10.3125,57.08 22.3867,67.39 34.6753,65.64 24.145,37.98 57.063,29.41 98.542,36.23 67.379,10.53 84.715,0 12.071,-12.07 12.07,-8.78 10.316,-8.56 7.024,-10.32 -105.567,8.56 -164.164,-43.25 -105.347,-105.37 -48.2856,-90 -17.3359,-34.47"
         style="fill:#d6c19d;fill-opacity:1;fill-rule:nonzero;stroke:none"
         id="path72" /><path
         d="m 349.227,1931.44 c -1.317,-2.85 -5.047,-2.85 -6.582,-1.1 -10.973,4.84 -13.61,28.54 -28.094,14.27 l 0,-5.48 c -2.633,0 -5.266,-0.67 -6.805,2.19 -1.976,8.34 7.024,11.63 11.852,15.14 19.093,2.2 18.656,-17.12 29.629,-25.02 l 0,0"
         style="fill:#231f20;fill-opacity:1;fill-rule:nonzero;stroke:none"
         id="path74" /><path
         d="m 653.637,1953.17 3.293,-4.38 0,0 c -14.266,-7.47 -35.336,-8.79 -53.114,-3.3 -1.757,0.88 -2.632,3.73 -1.976,6.59 3.953,2.19 7.023,-3.74 11.851,-3.29 12.731,-0.23 28.313,-0.23 39.946,4.38 l 0,0"
         style="fill:#231f20;fill-opacity:1;fill-rule:nonzero;stroke:none"
         id="path76" /><path
         d="m 465.547,1708.19 c 23.484,-8.79 46.308,-21.96 67.598,-33.59 7.683,-5.49 15.8,-10.76 22.828,-17.34 -3.735,-7.25 -15.145,-4.62 -22.828,-6.81 -27.653,1.1 -55.965,8.56 -76.157,27.22 -31.601,14.49 -65.402,24.37 -99.203,33.81 -42.797,1.97 -86.91,10.75 -130.363,1.09 -23.484,4.18 -40.164,-12.07 -63.211,-10.97 21.949,13.61 44.773,16.47 70.672,20.85 72.207,9.66 162.847,19.32 230.664,-14.26 l 0,0"
         style="fill:#837a6e;fill-opacity:1;fill-rule:nonzero;stroke:none"
         id="path78" /><path
         d="m 610.398,1253.11 c 10.754,2.2 20.196,7.69 32.485,5.49 -20.195,-1.54 -23.922,-21.95 -30.508,-36.88 1.098,-7.02 -1.754,-10.97 2.191,-16.47 3.954,-2.85 7.247,1.76 10.098,4.4 40.383,16.24 36.652,-34.47 53.113,-52.25 l 0,-2.19 c -8.339,5.26 -18.433,8.34 -28.312,5.48 -13.168,-5.26 -19.531,-16.9 -30.285,-25.02 -5.047,-12.74 16.238,-8.35 16.238,-21.52 19.754,-44.56 7.246,-100.32 -18.434,-138.517 0.879,12.293 -1.097,22.39 -6.586,31.827 -11.191,11.86 -26.554,14.06 -41.48,17.34 0.879,-19.09 16.68,-37.093 7.684,-58.823 -10.317,-19.539 -26.118,-41.711 -42.36,-56.422 -4.605,13.394 -11.191,28.98 -23.922,39.078 -8.34,3.512 -13.386,14.269 -22.824,14.269 1.973,-15.148 -10.758,-26.781 -18.656,-39.297 -3.07,22.395 -23.266,37.321 -30.289,57.516 -7.242,2.633 -9.875,-5.488 -15.363,-6.363 -11.411,-2.418 -24.797,-7.684 -30.504,-15.149 -15.805,25.024 -29.848,59.931 -12.95,89.121 3.293,-0.65 5.707,0.88 7.461,3.52 -1.972,5.7 -7.679,10.75 -14.265,14.05 -10.973,-1.76 -19.973,-10.1 -23.703,-20.86 -6.145,10.1 -6.145,24.15 -4.391,36.01 -1.754,27.43 21.289,50.26 43.457,61.9 5.488,0.66 10.316,2.86 16.461,2.2 10.754,-29.2 14.703,-62.79 43.457,-82.76 20.41,-10.98 40.82,-42.15 65.18,-23.71 27.437,-4.39 40.382,21.29 51.14,40.17 20.41,35.34 7.68,77.49 6.805,116.35 -7.246,13.61 -9.223,34.03 -6.805,47.85 4.824,5.05 10.535,12.3 18.653,10.76 -0.219,7.68 9.218,3.95 13.168,3.51 4.171,-5.7 7.902,-6.8 14.046,-4.61 l 0,0"
         style="fill:#f2eedb;fill-opacity:1;fill-rule:nonzero;stroke:none"
         id="path80" /><path
         d="m 1213.07,1145.55 c 4.39,-16.25 13.39,-31.84 9.88,-50.06 -10.32,-0.87 -23.27,8.13 -34.02,0 -34.9,-27.65 -51.79,-67.39 -60.79,-109.76 -5.05,47.2 1.97,93.74 19.75,135.89 10.53,18.22 20.19,39.73 42.36,47.63 12.73,0 15.14,-15.8 22.82,-23.7 l 0,0"
         style="fill:#5f5b61;fill-opacity:1;fill-rule:nonzero;stroke:none"
         id="path82" /><path
         d="m 680.852,1142.25 c 2.851,-3.07 6.8,0.22 7.679,3.3 -0.879,2.85 -2.851,5.04 -2.195,8.56 38.848,0.87 73.523,-14.27 114.129,-11.86 73.742,-12.07 147.047,-15.36 209.155,-55.32 24.58,-19.31 52.24,-35.12 69.57,-63.22 3.95,-2.41 10.32,-7.46 12.08,-12.95 17.77,-25.03 35.33,-47.639 42.36,-77.494 9.21,-13.832 10.31,-32.489 3.28,-47.856 -13.38,6.367 -19.09,24.586 -33.8,27.223 -13.16,10.754 -26.99,20.195 -42.35,25.023 5.92,10.758 16.46,18 15.14,31.614 -5.92,13.39 -17.78,26.121 -28.31,36 -0.22,7.9 17.12,13.17 7.68,22.83 -23.48,36.66 -57.282,59.05 -94.809,75.08 -6.586,-10.98 10.754,-8.79 15.363,-15.37 25.456,-17.12 54.866,-33.59 71.766,-61.9 2.2,-6.37 -3.52,-10.1 -7.46,-12.96 -6.15,6.15 -17.56,0.66 -21.73,8.78 -3.51,-0.21 -4.83,3.07 -7.68,0 -2.63,-4.39 2.41,-8.56 6.36,-10.09 22.61,-3.08 38.63,-24.589 51.36,-42.37 -0.88,-9.004 -6.15,-17.344 -13.17,-22.832 0.44,-11.196 -9.44,-1.536 -15.14,-4.391 -10.1,6.144 -21.51,8.558 -32.7,12.074 -1.76,-1.976 -4.39,-3.734 -3.3,-6.586 1.76,-4.609 6.81,-2.195 9.66,-4.39 2.64,-3.512 9,-2.196 13.17,-4.391 29.19,-7.024 57.06,-18.66 80.76,-36.879 12.3,-11.195 25.91,-23.711 35.56,-37.102 2.85,-14.269 13.83,-27 3.29,-41.488 -21.29,29.637 -56.18,54.004 -90.2,69.809 -2.64,0 -5.27,0.437 -6.58,-2.196 l 0,0 1.09,-4.171 0,0 c 39.07,-16.465 71.33,-41.93 97.01,-77.493 11.63,-15.586 8.78,-34.683 10.75,-53.343 l -3.07,0 0,0 c -21.07,36.66 -62.33,62.781 -98.11,81.664 -8.77,10.097 -22.16,10.535 -29.4,21.73 -2.86,1.758 -7.47,1.758 -9.66,-0.879 l 0,-3.511 c 43.46,-31.61 89.98,-48.293 124.88,-93.516 10.1,-8.781 11.41,-22.391 22.83,-29.414 0.87,-4.613 6.58,-7.906 7.68,-13.172 4.6,-5.93 0.66,-15.148 3.29,-21.734 -5.93,0.656 -6.15,8.121 -11.85,9.879 -14.27,7.683 -25.68,20.636 -39.29,29.414 -7.9,1.097 -9.88,9.66 -17.34,12.074 -38.84,19.097 -73.74,48.297 -114.342,64.101 -8.34,2.633 -14.485,18 -23.703,12.075 l 0,0 0.879,-5.489 0,0 c 22.824,-19.758 52.886,-24.808 75.276,-43.683 25.02,-14.711 51.58,-26.785 73.75,-45.664 23.26,-16.903 53.33,-32.489 65.4,-59.711 l -4.39,0 0,0 c -41.48,23.273 -84.06,44.566 -130.59,56.64 -24.8,12.512 -52.232,23.489 -79.446,28.098 -28.969,9.879 -59.7,14.93 -87.133,29.414 -1.754,-1.316 -2.414,-3.293 -2.196,-5.484 46.75,-28.321 105.352,-27.883 153.625,-52.028 31.17,-14.707 64.97,-23.269 95.7,-39.297 17.55,-11.414 39.06,-16.464 54.43,-30.511 -14.05,-7.465 -30.29,-8.563 -47.85,-7.684 -31.16,6.363 -66.28,8.121 -95.91,21.731 l 0,0 -3.07,4.613 0,0 c -61.671,-2.856 -113.03,18.875 -166.581,35.558 -35.554,12.516 -68.035,31.614 -103.371,43.688 -23.703,16.902 -39.504,40.391 -47.844,66.297 -0.441,28.758 -12.293,66.297 18.434,81.66 28.312,16.246 57.723,29.637 88.227,40.395 10.32,9.218 14.265,22.39 10.757,36 -12.074,29.855 -46.527,45.225 -71.769,64.105 -16.899,7.46 -32.262,18.44 -52.235,18.66 -4.168,3.07 -10.972,2.85 -15.363,2.19 -2.195,-2.41 -0.219,-5.71 2.195,-7.68 14.266,-3.29 25.68,-3.51 38.188,-10.98 32.922,-9.44 62.77,-30.95 87.133,-56.635 3.512,-8.344 7.461,-18 4.168,-28.317 -5.707,-17.343 -26.774,-16.246 -40.164,-25.027 -17.117,-6.586 -34.676,-16.465 -52.235,-25.027 -10.531,-5.489 -18.875,-14.047 -26.117,-25.024 3.512,-11.414 -6.801,-19.758 -1.098,-29.199 0.442,-14.488 -1.316,-29.856 5.489,-41.488 9.437,-36.223 40.82,-71.344 79.449,-76.176 28.312,-17.34 59.695,-31.609 92.617,-40.172 38.848,-14.707 77.473,-28.539 121.81,-30.516 -2.86,-16.023 -6.36,-31.39 -17.341,-43.683 -5.922,-18 2.414,-37.539 -3.293,-55.321 -9.875,-8.558 -23.703,-19.097 -19.531,-35.121 -0.442,-12.078 9.218,-21.515 4.168,-34.687 -7.02,-10.754 -23.485,-19.098 -22.825,-33.809 -1.097,0.223 -11.632,3.953 -17.339,1.102 -3.071,4.609 -5.485,8.121 -12.071,6.582 -1.754,-2.192 -3.949,-3.07 -6.582,-3.07 -3.293,8.781 -4.172,18.878 -9.66,27 -2.851,25.464 -18.871,47.199 -17.336,72.882 -5.484,13.829 -7.461,30.516 -8.777,44.786 l 0,0 -6.586,10.753 0,0 c -19.969,2.633 -43.453,8.563 -67.598,7.684 -5.926,4.828 -12.949,0 -19.531,0 -9.875,-0.441 -22.605,5.707 -30.289,-1.098 5.051,-12.73 23.703,-2.632 33.801,-8.781 -1.539,-6.586 -10.098,-12.293 -13.168,-19.535 0.218,-17.125 -22.606,-11.637 -24.145,-27.223 -2.633,-10.757 -1.976,-23.929 -12.949,-30.297 -16.02,-3.511 -32.262,-15.144 -39.063,-30.511 -6.367,-3.293 -14.488,-1.758 -15.363,-10.977 -6.804,-6.586 -18.219,-9.219 -20.633,-19.539 -4.609,5.27 -7.679,18.223 -19.754,19.539 -5.925,3.953 -10.753,-5.047 -16.019,-3.293 21.07,31.391 23.703,70.469 35.773,105.594 8.121,11.414 10.536,25.242 18.657,36.879 -7.243,8.121 -18.438,6.586 -27.438,9.879 -21.726,6.804 -39.941,22.609 -62.765,27.219 -58.821,18.66 -109.301,57.515 -167.676,77.273 -19.098,15.586 -42.801,25.027 -50.043,50.051 -23.922,42.367 -41.481,93.738 -22.824,142.468 5.265,16.907 6.144,32.055 14.046,47.86 3.071,-7.465 8.34,-16.027 10.973,-24.805 7.461,-14.269 14.047,-29.418 17.34,-45.883 0.437,-1.097 2.195,-0.875 3.289,-0.875 6.805,3.95 -1.094,10.536 0,16.243 -2.41,9.218 2.637,17.343 10.758,20.636 8.996,-0.66 15.359,5.266 22.824,7.684 14.703,-19.981 34.02,-38.199 31.602,-65.203 l 0,0 3.511,-3.512 0,0 c 5.93,1.977 2.414,9.66 6.367,13.176 l 0,0 20.629,34.679 0,0 c 17.996,-6.363 30.289,-26.558 31.825,-45.66 2.195,-7.242 -13.168,-11.191 -3.512,-17.34 l 0,0 5.488,2.196 0,0 c 26.992,37.101 78.133,75.297 50.035,124.249 13.172,1.1 24.145,-6.59 30.512,-16.464 1.973,-12.512 2.191,-23.926 -1.098,-36 1.754,-3.734 6.364,-3.734 8.778,-1.098 30.066,44.562 47.625,109.102 22.824,161.132 -2.633,5.7 -10.316,8.12 -6.582,15.15 7.898,10.53 18.215,19.97 32.48,17.34 5.489,-4.17 12.293,-6.15 16.243,-11.86 l 0,0"
         style="fill:#6f6c75;fill-opacity:1;fill-rule:nonzero;stroke:none"
         id="path84" /><path
         d="m 947.512,1115.25 1.093,-1.1 2.633,0 c -1.316,0.44 -2.414,0.88 -3.726,1.1 l 0,0 z m 4.609,-1.54 c 0.438,-1.75 3.508,-4.83 3.508,-6.58 3.512,0 0,-1.54 3.512,-1.54 l 0,-3.51 0.441,-0.66 c 0.219,0.44 0.656,1.1 0.879,1.76 5.703,-2.42 11.191,-5.05 16.676,-7.69 1.539,-0.22 3.074,-0.44 4.39,-0.44 0,-1.09 1.758,-2.63 3.95,-3.95 1.32,-0.87 2.636,-1.53 3.953,-2.19 3.511,-1.76 6.8,-3.29 7.679,-4.17 l 0,-0.44 c 22.611,-14.05 42.581,-32.05 58.161,-56.2 9.44,-9.66 -7.9,-14.93 -7.68,-22.83 10.53,-9.879 22.39,-22.61 28.31,-36 1.32,-13.614 -9.22,-20.856 -15.14,-31.614 15.36,-4.828 29.19,-14.269 42.35,-25.023 14.71,-2.637 20.42,-20.856 33.8,-27.223 7.03,15.367 5.93,34.024 -3.28,47.856 -7.03,29.855 -24.59,52.464 -42.36,77.494 -1.76,5.49 -8.13,10.54 -12.08,12.95 -17.33,28.1 -44.99,43.91 -69.57,63.22 -18.218,11.64 -37.53,20.42 -57.499,26.78 l 0,0 z m 75.059,-63 c 6.58,-6.15 12.73,-12.95 17.78,-20.63 -1.76,0.88 -3.74,1.97 -4.61,2.85 l 0,1.76 c -3.08,1.31 -10.97,10.31 -13.17,16.02 l 0,0 z m 35.33,-73.319 c 1.98,-2.633 3.95,-5.489 5.93,-8.121 -0.88,-9.004 -6.15,-17.344 -13.17,-22.832 0.22,-3.512 -0.66,-4.829 -2.2,-5.27 2.2,12.074 8.13,22.832 9.44,36.223 l 0,0 z m -8.12,-46.977 c 19.1,-6.809 37.31,-16.246 53.33,-28.539 12.07,-10.977 25.46,-23.27 35.12,-36.441 -1.32,0 -2.41,0.437 -2.41,1.535 l -5.05,0 c -5.27,5.269 -5.27,0 -7.02,13.832 -1.76,0 -18.88,6.804 -18.88,12.07 -5.27,0 -39.72,20.637 -39.72,29.418 -3.51,0 -10.54,6.805 -13.83,6.805 l -1.54,1.32"
         style="fill:#646167;fill-opacity:1;fill-rule:nonzero;stroke:none"
         id="path86" /><path
         d="m 345.934,1029.2 c 1.097,-1.32 2.855,-1.54 4.171,-2.2 6.586,2.42 1.536,9.22 4.61,12.95 1.976,9.44 10.535,15.37 17.34,19.76 l 0,0 3.289,-2.41 0,0 c -9.875,-8.78 -6.145,-23.49 -12.949,-33.59 2.195,-21.51 -12.727,-38.636 -14.485,-59.929 -8.558,-27.222 -15.582,-56.64 -6.363,-85.836 l 0,0 1.098,-17.562 0,0 c -9,5.707 -19.973,10.097 -27.215,17.562 -2.414,0.66 -3.512,-1.535 -5.489,-2.195 3.293,-9.879 12.289,-11.855 20.629,-16.465 8.563,-7.683 21.071,-11.851 21.95,-23.707 1.976,-11.637 11.632,-19.316 14.046,-30.515 -41.48,9.222 -73.523,40.613 -112.148,56.417 -2.637,-0.437 -3.734,-3.949 -3.293,-6.585 6.801,-4.391 14.262,-7.68 20.629,-12.954 24.801,-11.414 48.504,-26.781 73.082,-38.195 11.414,-0.875 19.535,-10.098 30.508,-12.949 17.558,-22.613 41.48,-39.078 66.5,-48.957 -20.848,-5.266 -40.602,-0.438 -58.817,5.269 -32.922,2.856 -59.476,19.539 -89.328,28.321 -18.433,7.461 -32.48,15.586 -51.136,22.828 -19.313,7.683 -38.407,20.637 -52.454,37.32 -26.996,23.926 -40.164,57.953 -47.843,92.199 3.511,28.758 33.578,45.664 55.527,58.832 38.844,15.151 88.008,-1.316 115.441,36.001 5.704,15.15 12.731,29.86 24.141,42.37 -1.977,-13.83 7.023,-23.27 8.559,-35.78 l 0,0"
         style="fill:#5f5b61;fill-opacity:1;fill-rule:nonzero;stroke:none"
         id="path88" /><path
         d="m 1252.36,1037.76 c 1.97,-26.34 -5.71,-54.006 -18.66,-77.272 -14.26,18.219 -37.31,20.852 -57.5,17.563 -13.17,-5.27 -24.58,-16.906 -35.11,-26.125 -4.39,36 13.16,70.024 40.38,93.514 21.29,16.91 55.74,13.39 70.89,-7.68 l 0,0"
         style="fill:#5f5b61;fill-opacity:1;fill-rule:nonzero;stroke:none"
         id="path90" /><path
         d="m 1224.05,919.215 c 10.31,-15.805 11.41,-37.098 11.85,-55.32 -7.69,-12.071 -18.88,-24.145 -31.61,-31.832 5.71,35.785 -5.04,74.859 -36.87,95.714 -4.17,3.735 -8.78,5.926 -14.04,6.805 10.53,13.609 29.41,10.758 44.55,6.367 9.66,-4.609 20.63,-11.414 26.12,-21.734 l 0,0"
         style="fill:#5f5b61;fill-opacity:1;fill-rule:nonzero;stroke:none"
         id="path92" /><path
         d="m 659.125,488.07 c 2.41,-13.828 24.578,-30.293 5.484,-42.367 -9,-14.93 -29.41,-10.758 -39.945,-20.637 -9.656,-14.707 -20.191,-22.832 -25.238,-39.293 -18.656,-26.343 -22.824,-61.687 -50.039,-81.445 -4.828,-6.144 -6.364,-15.144 -16.242,-14.269 l 0,0 -2.415,1.976 0,0 c -1.757,-1.976 -1.757,-4.828 -3.07,-7.461 1.977,-4.832 7.899,-3.734 10.754,-2.195 6.145,1.973 12.508,4.828 16.461,8.781 7.898,1.317 11.629,-6.586 18.652,-7.687 l 0,0 0.879,-15.145 0,0 c 6.364,-3.512 5.707,5.707 8.778,8.559 1.976,6.367 -4.829,12.953 4.39,15.148 9.656,0.442 13.61,-5.707 19.535,-11.855 3.071,-12.071 0.657,-25.461 -9.879,-32.489 -12.507,-7.023 -13.605,21.516 -25.019,5.489 -19.313,4.172 -36.652,-2.856 -54.207,-5.489 -10.977,-3.73 -27.219,-4.828 -38.191,1.977 -16.02,6.367 -21.29,-20.195 -37.969,-18.441 0.66,1.316 -1.317,6.367 -3.293,8.781 -3.949,1.758 -5.266,-2.856 -7.68,-4.391 1.977,-7.023 -6.586,-7.902 -9.875,-12.07 -9.879,-2.856 -18.437,6.586 -26.117,-0.879 -5.707,-9.883 -5.926,-25.906 -20.633,-28.32 -13.605,0.879 -32.918,-5.051 -43.676,6.367 1.758,6.367 10.535,5.265 14.266,10.976 10.977,17.34 12.73,44.344 5.269,64.321 -5.707,6.804 -13.609,12.511 -21.507,10.535 2.195,10.098 16.238,21.516 26.996,25.246 16.461,1.977 31.383,-6.805 38.187,-20.633 10.317,-14.492 3.731,-32.051 1.098,-47.859 l 0,0 3.289,-3.293 0,0 c 9.656,10.976 8.781,28.976 8.562,43.465 l 0,0 7.68,2.199 0,0 c 0.438,-4.172 6.586,-0.442 8.778,-3.293 5.707,-3.516 11.195,-5.492 11.851,-13.172 -0.219,-5.711 -4.605,-12.074 2.195,-16.027 7.461,5.929 5.707,14.488 4.61,23.707 l 0,0 -1.317,1.097 0,0 c 7.461,10.102 22.387,4.395 28.313,15.368 -7.684,6.148 -15.145,-2.414 -23.922,-1.317 -1.758,-4.609 -7.461,-3.73 -10.754,-6.363 -10.316,5.266 -17.996,16.683 -29.41,6.363 l 0,0 -2.195,2.195 0,0 c 8.558,7.028 18.437,7.028 26.996,0 17.554,-1.097 37.75,7.684 53.332,-0.878 7.679,3.293 7.679,15.367 16.461,18.441 7.679,-4.391 14.265,-13.172 23.922,-9.879 1.097,1.316 4.609,1.316 3.293,4.609 -6.368,3.512 -13.61,5.711 -19.536,10.54 l 0,0 -3.293,3.511 19.536,30.293 0,0 c 8.121,-0.219 12.73,-9 18.437,-15.144 0,-5.27 3.945,-9 6.801,-13.172 4.828,-0.66 4.828,5.926 3.074,8.781 -5.051,10.977 -10.754,18.656 -20.852,27.219 6.805,9.441 16.024,18.879 23.043,27.222 8.34,-4.609 11.415,-13.832 19.754,-18.441 l 0,0 4.168,4.391 0,0 c -7.019,4.832 -7.679,16.465 -16.457,19.539 l 0,3.293 21.946,22.828 0,0 c 6.144,0.441 9.437,-16.903 15.144,-5.488 0,7.906 -13.387,12.515 -6.582,20.636 18.434,13.172 -0.66,44.782 20.629,53.348 7.242,13.828 25.02,-5.492 28.531,10.973 8.34,2.636 10.317,-10.539 18.219,-8.782 l 0,0"
         style="fill:#cbbb9e;fill-opacity:1;fill-rule:nonzero;stroke:none"
         id="path94" /><path
         d="m 932.148,458.875 c 1.536,2.414 2.411,4.609 5.485,5.488 14.488,1.754 18.875,-10.976 27.433,-18.66 -1.316,-14.93 -5.046,-30.074 -17.554,-39.293 -19.754,-1.976 -18.657,-25.906 -30.508,-37.98 -8.121,-18.219 -6.586,-40.614 -9.875,-61.028 -2.418,-17.562 -12.074,-32.269 -14.047,-50.05 -20.195,0 -35.117,-15.368 -48.945,-28.321 -9.875,-11.851 -6.145,-31.828 -16.242,-41.488 1.32,-3.73 -3.071,-2.414 -4.387,-4.172 -4.828,-0.219 -8.121,9.879 -13.168,3.293 8.121,-18.879 -9,-30.074 -18.438,-44.781 -12.289,-9.219 -26.773,-12.516 -42.578,-14.051 11.196,19.32 32.043,36.004 28.313,59.711 -5.485,12.953 -17.117,22.172 -29.188,27.441 -11.851,-0.66 -23.922,-1.316 -32.703,-8.781 -6.363,-6.586 -12.07,-14.051 -14.266,-22.832 1.098,22.172 12.95,43.684 31.606,57.516 17.555,7.683 35.336,0.879 52.234,-6.367 7.903,-10.754 19.973,-17.122 18.653,-31.61 1.097,-2.637 4.832,-2.637 6.367,-1.097 2.633,3.949 0.437,10.972 -2.195,15.367 0,2.851 -4.829,6.367 0,8.558 1.976,3.293 5.265,3.516 8.777,3.293 4.391,-1.316 7.246,-6.586 4.391,-10.972 l 0,0 8.781,-7.684 0,0 c 3.949,5.266 0.437,12.73 0,18.656 -4.832,3.293 -8.563,6.149 -7.684,11.856 -11.414,4.832 -22.387,-18.442 -32.48,-0.879 l 0,0 -6.805,5.488 0,0 c 10.535,15.59 34.895,0.223 44.77,15.149 -1.317,6.585 7.902,7.464 11.855,10.757 13.828,10.317 21.289,-9.441 35.992,-4.172 2.196,-2.632 5.047,-3.953 8.559,-3.511 3.949,3.949 -2.633,6.363 -2.196,10.097 -8.996,3.95 -17.996,0.438 -24.8,7.684 -5.047,1.098 -12.289,2.195 -16.461,-1.32 3.511,11.855 12.511,30.515 29.41,32.711 11.414,3.953 18.219,-18.661 27.215,-5.489 -0.219,12.516 -13.606,2.196 -18.653,13.172 -7.902,3.731 -14.269,-2.195 -21.511,-3.511 5.269,8.562 6.367,23.929 16.242,25.246 4.172,1.097 7.242,7.023 12.07,3.074 3.293,-2.856 5.707,-6.809 10.754,-5.492 2.414,1.976 3.953,4.613 3.293,7.683 -7.898,0.442 -12.73,10.758 -20.848,7.684 4.387,8.344 8.778,15.148 17.555,19.758 5.051,-2.196 7.684,-4.168 12.074,-8.782 0.657,3.293 7.899,6.586 1.973,9.661 l 0,0 -10.754,7.683 0,0 c 5.047,9.438 5.707,22.832 19.754,23.93 0.66,-2.856 2.191,-5.711 5.047,-6.586 5.047,1.754 7.461,7.683 2.414,10.973 -3.512,5.71 -11.41,3.078 -16.461,2.195 l 0,0 -4.172,-3.07 0,0 c -6.582,10.316 -5.703,25.902 -1.094,37.976 5.047,7.902 18.657,21.512 26.996,9.879 l 0,0"
         style="fill:#e1cea6;fill-opacity:1;fill-rule:nonzero;stroke:none"
         id="path96" /><path
         d="m 345.934,318.379 c -12.508,-10.316 -28.532,-22.172 -31.383,-39.293 -8.121,-1.539 -2.633,6.367 -6.805,8.777 -5.266,7.028 -14.703,17.125 -21.726,13.176 12.73,17.777 33.578,24.363 55.527,19.535 1.098,-1.535 2.633,-1.758 4.387,-2.195 l 0,0"
         style="fill:#b3a791;fill-opacity:1;fill-rule:nonzero;stroke:none"
         id="path98" /><path
         d="m 300.066,284.574 c 0.657,-3.953 -1.316,-8.344 2.196,-10.758 -19.754,-12.73 -29.629,-36.882 -39.067,-57.957 -18.656,-5.484 -38.629,-12.949 -46.75,-32.488 -5.707,32.27 11.196,62.785 31.606,88.031 13.387,11.852 36.871,31.828 52.015,13.172 l 0,0"
         style="fill:#777479;fill-opacity:1;fill-rule:nonzero;stroke:none"
         id="path100" /><path
         d="m 629.934,274.695 c 1.316,-2.636 1.093,-6.367 1.093,-9.66 -3.726,-4.39 -7.898,-8.125 -14.043,-6.367 1.977,8.121 -3.07,16.246 -4.609,24.805 7.023,2.636 15.363,-1.317 17.559,-8.778 l 0,0"
         style="fill:#777479;fill-opacity:1;fill-rule:nonzero;stroke:none"
         id="path102" /><path
         d="m 340.449,274.695 c 11.192,-16.027 7.242,-40.394 -1.097,-57.515 -11.414,-10.098 -27.653,-12.512 -42.579,-10.977 -8.777,-9.879 -21.07,-14.269 -25.019,-27.223 l 0,0 -5.488,-4.171 0,0 c -7.024,17.343 3.734,32.492 7.683,47.859 8.996,20.852 21.508,40.609 44.77,47.855 2.414,3.512 7.246,5.489 10.976,7.461 4.168,0.661 7.899,-0.875 10.754,-3.289 l 0,0"
         style="fill:#8b8990;fill-opacity:1;fill-rule:nonzero;stroke:none"
         id="path104" /><path
         d="m 698.406,268.328 c 4.828,-11.195 17.121,-20.414 10.758,-34.906 3.289,-7.902 -5.488,-10.535 -7.684,-17.563 -3.73,-14.484 -11.632,-27.879 -8.558,-45.656 -13.168,-2.637 -18.215,-17.125 -32.922,-16.246 -5.926,2.191 -13.387,2.633 -15.801,9.879 0.438,4.387 5.485,3.512 8.34,5.484 15.145,10.758 13.824,31.395 12.07,46.539 -7.902,13.614 -13.386,36.883 -32.48,37.321 15.363,18.222 43.894,27 66.277,15.148 l 0,0"
         style="fill:#e1cea6;fill-opacity:1;fill-rule:nonzero;stroke:none"
         id="path106" /><path
         d="m 736.598,251.863 -18.657,-10.976 0,0 c -5.488,10.32 4.387,11.418 10.973,14.269 3.731,1.977 4.609,-3.074 7.684,-3.293 l 0,0"
         style="fill:#cbbb9e;fill-opacity:1;fill-rule:nonzero;stroke:none"
         id="path108" /><path
         d="m 932.148,234.52 c 16.457,-14.047 32.262,-35.782 24.141,-57.735 -3.73,-12.293 -9.437,-25.465 -21.73,-31.609 4.39,16.461 5.05,36.222 2.199,52.465 -4.61,7.902 -12.731,11.414 -19.754,15.144 -16.024,-0.437 -33.359,-1.754 -42.359,-15.144 -0.219,-14.27 -9.219,-28.977 -1.098,-42.586 l 0,0 3.074,-23.93 0,0 c -14.926,2.195 -24.363,15.805 -33.363,27.219 -1.973,27.883 -5.266,62.347 22.828,79.469 14.047,15.585 34.457,9.878 50.918,6.367 l 0,0 15.144,-9.66 0,0"
         style="fill:#e1cea6;fill-opacity:1;fill-rule:nonzero;stroke:none"
         id="path110" /><path
         d="m 656.93,213.887 c -0.879,-15.809 3.73,-30.516 -12.075,-39.078 -26.773,9.004 -46.527,-10.098 -62.765,-25.243 l 0,0 -4.395,-11.855 0,0 c -3.07,11.414 0.66,25.023 1.321,37.977 7.461,21.953 15.144,46.98 36.871,59.929 4.168,5.707 12.07,6.805 19.531,7.684 14.488,-1.977 14.707,-19.535 21.512,-29.414 l 0,0"
         style="fill:#9b9aa3;fill-opacity:1;fill-rule:nonzero;stroke:none"
         id="path112" /><path
         d="m 770.176,186.664 c 3.73,-27.441 -26.996,-43.027 -35.992,-66.516 l 0,0 -12.95,-23.9253 0,0 c -2.414,5.7073 -3.73,11.6323 -8.781,16.4653 -7.898,25.683 -9.437,58.39 5.488,81.66 7.461,9.66 20.411,13.832 32.7,10.976 8.781,-3.511 14.707,-10.758 19.535,-18.66 l 0,0"
         style="fill:#9b9aa3;fill-opacity:1;fill-rule:nonzero;stroke:none"
         id="path114" /><path
         d="m 929.949,194.348 c 6.809,-27.879 -4.386,-53.563 -19.531,-75.297 -2.414,-8.563 -10.754,-13.172 -16.238,-19.5354 -9.66,18.6564 -7.903,43.4644 -14.047,64.3204 -0.66,13.391 -1.317,30.512 12.949,37.977 7.898,0.875 17.996,3.949 27.215,1.097 5.047,-1.316 5.703,-5.707 9.652,-8.562 l 0,0"
         style="fill:#9b9aa3;fill-opacity:1;fill-rule:nonzero;stroke:none"
         id="path116" /><path
         d="m 958.922,1098.57 -6.801,0 c -6.805,3.51 -24.144,3.51 -27.656,7.02 l -3.512,0 -1.758,-1.75 c 1.758,-5.27 10.535,-8.79 10.535,-13.84 l 1.758,-1.75 c 3.289,0 5.047,-5.27 5.047,-7.02 1.758,0 5.266,-5.05 7.024,-6.81 l 1.757,-46.76 c -1.757,0 -5.269,-3.51 -7.023,-3.51 13.828,-6.81 13.828,-27.662 22.387,-36.224 -1.539,-1.754 -5.051,-6.805 -5.051,-10.317 -3.508,0 -8.777,-3.511 -8.777,-3.511 1.753,0 3.511,-1.758 3.511,-3.512 7.024,0 13.828,-18.879 17.34,-22.395 l 0,-34.683 c -3.512,-3.293 -19.098,-12.074 -24.144,-12.074 8.562,-8.563 6.804,-27.661 6.804,-39.735 -5.047,-12.07 -27.652,-17.121 -39.726,-17.121 0,-1.758 5.269,-5.269 7.023,-7.023 0,-29.418 -24.359,-27.66 -48.504,-27.66 l 3.512,-1.758 0,-5.047 -3.512,-3.512 -60.351,0 c 1.535,0 6.8,-7.027 8.558,-8.781 l 1.754,-10.32 1.758,0 0,-6.805 -1.758,0 0,-3.512 -1.754,-1.758 c -1.758,0 -8.558,-3.511 -8.558,-5.265 -3.512,0 -8.782,-1.539 -13.828,-1.539 l -1.754,-1.754 c 0,-3.512 1.754,-5.27 1.754,-8.785 3.293,0 3.293,-3.293 3.293,-3.293 l 1.753,0 c 1.098,-1.313 1.54,-3.95 1.758,-6.145 23.262,-10.316 46.309,-21.953 70.668,-30.516 10.977,-3.292 22.168,-7.023 33.141,-10.753 19.312,-7.903 39.285,-14.926 63.867,-16.684 3.512,-0.879 7.461,-2.414 11.41,-3.953 18.656,-3.512 37.753,-5.27 58.163,-4.168 l 0,0 3.07,-4.613 0,0 c 29.63,-13.61 64.75,-15.368 95.91,-21.731 17.56,-0.879 33.8,0.219 47.85,7.684 -15.37,14.047 -36.88,19.097 -54.43,30.511 -30.73,16.028 -64.53,24.59 -95.7,39.297 -48.273,24.145 -106.875,23.707 -153.625,52.028 -0.218,2.191 0.442,4.168 2.196,5.484 27.433,-14.484 58.164,-19.535 87.133,-29.414 27.214,-4.609 54.646,-15.586 79.446,-28.098 46.53,-12.074 89.11,-33.367 130.59,-56.64 l 4.39,0 0,0 c -12.07,27.222 -42.14,42.808 -65.4,59.711 -22.17,18.879 -48.73,30.953 -73.75,45.664 -22.39,18.875 -52.452,23.925 -75.276,43.683 l 0,0 -0.879,5.489 0,0 c 9.218,5.925 15.363,-9.442 23.703,-12.075 40.602,-15.804 75.502,-45.004 114.342,-64.101 7.46,-2.414 9.44,-10.977 17.34,-12.074 13.61,-8.778 25.02,-21.731 39.29,-29.414 5.7,-1.758 5.92,-9.223 11.85,-9.879 -2.63,6.586 1.31,15.804 -3.29,21.734 -1.1,5.266 -6.81,8.559 -7.68,13.172 -11.42,7.023 -12.73,20.633 -22.83,29.414 -34.9,45.223 -81.42,61.906 -124.88,93.516 l 0,3.511 c 2.19,2.637 6.8,2.637 9.66,0.879 7.24,-11.195 20.63,-11.633 29.4,-21.73 35.78,-18.883 77.04,-45.004 98.11,-81.664 l 3.07,0 0,0 c -1.97,18.66 0.88,37.757 -10.75,53.343 -25.68,35.563 -57.94,61.028 -97.01,77.493 l 0,0 -1.09,4.171 0,0 c 1.31,2.633 3.94,2.196 6.58,2.196 34.02,-15.805 68.91,-40.172 90.2,-69.809 10.54,14.488 -0.44,27.219 -3.29,41.488 -9.65,13.391 -23.26,25.907 -35.56,37.102 -13.17,10.098 -27.65,18.219 -42.79,24.586 -9,1.535 -22.39,5.269 -26.34,7.902 l 0,1.317 c -3.95,1.097 -7.68,2.195 -11.63,3.074 -4.17,2.195 -10.53,0.879 -13.17,4.391 -2.85,2.195 -7.9,-0.219 -9.66,4.39 -1.09,2.852 1.54,4.61 3.3,6.586 11.19,-3.516 22.6,-5.93 32.7,-12.074 2.63,1.535 6.36,0 9.43,-0.879 l 3.96,0 c 0.21,0.219 0.43,0.441 0.65,0.441 0,0.438 0.22,0.875 0.66,1.094 0.44,0.879 0.44,1.977 0.44,3.735 7.02,5.488 12.29,13.828 13.17,22.832 -12.73,17.781 -28.75,39.29 -51.36,42.37 -3.95,1.53 -8.99,5.7 -6.36,10.09 2.85,3.07 4.17,-0.21 7.68,0 4.17,-8.12 15.58,-2.63 21.73,-8.78 3.94,2.86 9.66,6.59 7.46,12.96 -3.73,6.36 -8.12,12.29 -13.17,17.56 -2.19,0.88 -4.39,1.75 -4.61,4.61 0,0.22 -0.22,0.22 -0.22,0.44 -1.53,0.21 -3.29,1.75 -4.82,1.75 0,1.32 -2.42,4.17 -5.05,7.03 -13.83,11.41 -29.634,20.85 -43.896,30.51 -3.734,5.49 -16.465,4.83 -16.902,10.76 l 0,0 z M 822.629,723.84 c 4.828,-2.414 9.656,-4.828 14.484,-7.027 -4.168,1.32 -9.656,3.953 -14.484,7.027 l 0,0 z m 314.511,162.008 c -0.23,-0.219 -0.23,-0.219 -0.23,-0.438 -4.39,1.977 -7.9,5.488 -11.19,9 4.61,-3.074 8.56,-5.926 11.42,-8.562"
         style="fill:#5f5b61;fill-opacity:1;fill-rule:nonzero;stroke:none"
         id="path118" /><path
         d="m 187.914,837.555 28.313,0 c 3.293,7.023 3.293,13.828 3.293,20.851 l 3.511,0 c 7.024,10.321 12.071,18.883 12.071,32.711 8.777,0 20.847,-5.047 29.41,-5.047 1.754,1.535 7.023,5.047 8.777,6.801 0,10.32 5.051,20.637 5.051,31.176 17.117,0 38.406,-6.149 59.035,-9.66 -0.656,-12.074 0.438,-24.367 4.172,-36.442 l 0,0 1.098,-17.562 0,0 c -9,5.707 -19.973,10.097 -27.215,17.562 -2.414,0.66 -3.512,-1.535 -5.489,-2.195 3.293,-9.879 12.289,-11.855 20.629,-16.465 8.563,-7.683 21.071,-11.851 21.95,-23.707 1.976,-11.637 11.632,-19.316 14.046,-30.515 -41.48,9.222 -73.523,40.613 -112.148,56.417 -2.637,-0.437 -3.734,-3.949 -3.293,-6.585 6.801,-4.391 14.262,-7.68 20.629,-12.954 24.801,-11.414 48.504,-26.781 73.082,-38.195 11.414,-0.875 19.535,-10.098 30.508,-12.949 17.558,-22.613 41.48,-39.078 66.5,-48.957 -20.848,-5.266 -40.602,-0.438 -58.817,5.269 -32.922,2.856 -59.476,19.539 -89.328,28.321 -18.433,7.461 -32.48,15.586 -51.136,22.828 -19.313,7.683 -38.407,20.637 -52.454,37.32 -0.66,0.656 -1.535,1.317 -2.195,1.977"
         style="fill:#524f53;fill-opacity:1;fill-rule:nonzero;stroke:none"
         id="path120" /><path
         d="m 704.992,1127.98 c 5.266,-10.31 8.559,-25.9 8.559,-39.73 -13.824,0 -34.457,-5.27 -50.039,-5.27 10.316,-15.59 29.41,-82.98 -3.512,-82.98 0,-24.148 5.27,-58.832 -23.922,-58.832 0,1.758 -3.512,5.27 -3.512,5.27 L 618.738,917.02 c 0,-1.754 -1.535,-3.512 -1.535,-5.047 -1.754,0 -8.777,0 -8.777,1.535 l -5.047,0 -3.512,3.512 c -1.758,0 -3.515,0 -3.515,1.757 l -3.508,-1.757 -1.758,-1.754 c 0,-37.977 -12.07,-62.125 -48.285,-74.2 l -3.508,1.754 c 0,1.758 -10.32,27.66 -12.074,27.66 0,5.051 -10.313,5.051 -13.828,5.051 0,-10.32 -12.071,-29.414 -20.629,-32.711 -1.754,1.758 -31.164,39.735 -31.164,43.25 0,-1.757 -1.758,-3.515 -1.758,-5.269 -3.508,0 -10.313,-8.563 -13.824,-10.321 0,-1.753 -5.266,-7.023 -7.024,-8.781 -5.047,10.539 -18.875,50.274 -34.457,50.274 l -1.758,3.293 c -3.511,0 -10.312,-13.832 -15.582,-17.125 -10.316,10.32 -25.898,50.05 -30.066,70.906 2.414,9.879 4.609,19.539 9.437,29.418 3.071,-7.465 8.34,-16.027 10.973,-24.805 7.461,-14.269 14.047,-29.418 17.34,-45.883 0.437,-1.097 2.195,-0.875 3.289,-0.875 6.805,3.95 -1.094,10.536 0,16.243 -2.41,9.218 2.637,17.343 10.758,20.636 8.996,-0.66 15.359,5.266 22.824,7.684 14.703,-19.981 34.02,-38.199 31.602,-65.203 l 0,0 3.511,-3.512 0,0 c 5.93,1.977 2.414,9.66 6.367,13.176 l 0,0 20.629,34.679 0,0 c 17.996,-6.363 30.289,-26.558 31.825,-45.66 2.195,-7.242 -13.168,-11.191 -3.512,-17.34 l 0,0 5.488,2.196 0,0 c 26.992,37.101 78.133,75.297 50.035,124.249 13.172,1.1 24.145,-6.59 30.512,-16.464 1.973,-12.512 2.191,-23.926 -1.098,-36 1.754,-3.734 6.364,-3.734 8.778,-1.098 30.066,44.562 47.625,109.102 22.824,161.132 -2.633,5.7 -10.316,8.12 -6.582,15.15 7.898,10.53 18.215,19.97 32.48,17.34 5.489,-4.17 12.293,-6.15 16.243,-11.86 l 0,0 c 2.851,-3.07 6.8,0.22 7.679,3.3 -0.879,2.85 -2.851,5.04 -2.195,8.56 4.391,0 8.781,0 13.172,-0.22 0.219,-3.51 0.219,-7.03 0.219,-10.54 1.753,-3.51 3.507,-8.78 5.265,-15.37"
         style="fill:#646167;fill-opacity:1;fill-rule:nonzero;stroke:none"
         id="path122" /><path
         d="m 345.715,911.973 c 4.172,-25.028 2.637,-27.879 0.437,-23.711 3.735,-28.317 15.364,-55.758 29.192,-80.125 7.242,-25.024 30.945,-34.465 50.043,-50.051 58.375,-19.758 108.855,-58.613 167.676,-77.273 22.824,-4.61 41.039,-20.415 62.765,-27.219 9,-3.293 20.195,-1.758 27.438,-9.879 -5.489,-7.684 -8.34,-16.465 -12.075,-24.586 3.516,-1.098 6.368,-2.199 7.903,-2.856 0,-36.222 -22.387,-75.957 -34.457,-108.882 -0.219,-0.661 -0.438,-1.321 -0.657,-2.196 0.219,-0.222 0.657,-0.441 0.875,-0.66 12.075,-1.316 15.145,-14.269 19.754,-19.539 2.414,10.32 13.829,12.953 20.633,19.539 0.875,9.219 8.996,7.684 15.363,10.977 6.801,15.367 23.043,27 39.063,30.511 10.973,6.368 10.316,19.54 12.949,30.297 1.539,15.586 24.363,10.098 24.145,27.223 3.07,7.242 11.629,12.949 13.168,19.535 -10.098,6.149 -28.75,-3.949 -33.801,8.781 7.684,6.805 20.414,0.657 30.289,1.098 6.582,0 13.605,4.828 19.531,0 24.145,0.879 47.629,-5.051 67.598,-7.684 l 0,0 0.879,-1.316 c 2.414,0.219 4.609,0.66 6.801,1.098 l 1.757,0 c 65.403,-15.145 51.141,-101.86 56.407,-157.617 5.484,0.218 11.629,-1.977 12.507,-2.2 -0.66,14.711 15.805,23.055 22.825,33.809 5.05,13.172 -4.61,22.609 -4.168,34.687 -4.172,16.024 9.656,26.563 19.531,35.121 5.707,17.782 -2.629,37.321 3.293,55.321 10.981,12.293 14.481,27.66 17.341,43.683 -32.704,1.321 -62.552,9.223 -91.525,19.321 -10.312,1.758 -30.945,13.828 -39.722,12.074 -0.879,0 -3.512,1.754 -5.707,3.512 -27.211,8.562 -53.551,21.074 -77.473,35.781 -38.629,4.832 -70.012,39.953 -79.449,76.176 -6.805,11.632 -5.047,27 -5.489,41.488 -5.703,9.441 4.61,17.785 1.098,29.199 7.242,10.977 15.586,19.535 26.117,25.024 17.559,8.562 35.118,18.441 52.235,25.027 13.39,8.781 34.457,7.684 40.164,25.027 3.293,10.317 -0.656,19.973 -4.168,28.317 -24.363,25.685 -54.211,47.195 -87.133,56.635 -10.973,6.59 -21.07,7.47 -32.918,9.88 l 0,-1.75 -3.516,0 c 0,-1.76 3.516,-3.3 3.516,-6.81 1.754,0 3.508,-1.76 5.266,-1.76 l 24.144,-20.85 c 8.559,-13.83 8.559,-36.224 13.824,-50.052 l -3.511,-25.907 c 0,-5.265 -5.266,-10.316 -5.266,-13.828 -3.293,0 -13.828,-10.316 -15.363,-12.074 -32.922,-24.148 -46.75,-90.004 -34.676,-127.984 3.508,-12.071 1.754,-34.461 -5.27,-45 l -1.535,0 c -1.758,-5.051 -7.023,-13.828 -10.535,-18.879 -1.758,0 -3.293,-1.754 -3.293,-3.512 -7.023,-1.758 -25.898,-13.832 -32.699,-6.809 -53.555,0 -100.301,30.954 -150.34,30.954 0,3.515 -12.074,5.273 -12.074,10.539 -12.07,0 -27.652,13.832 -37.965,18.879 -5.269,3.511 -29.41,25.906 -34.68,25.906 -1.754,3.512 -10.312,8.777 -10.312,12.07 -8.563,5.27 -12.07,13.832 -19.094,20.856 0,13.832 -13.828,25.902 -13.828,39.734 -3.293,0 -6.805,12.074 -6.805,15.586 -3.511,0 -3.511,5.269 -3.511,6.805 l -1.754,0 c -1.098,1.757 -1.977,3.074 -2.637,3.953 -0.219,1.976 0,3.949 0,5.926 0.223,0.218 0.66,0.441 0.879,0.66 l 0,0 z m 397.246,142.907 c 8.34,-1.54 14.926,-3.29 15.582,-4.61 3.512,0 17.34,-5.27 17.34,-8.78 1.754,0 8.558,-8.56 10.316,-8.56 0,-3.51 3.512,-3.51 5.266,-3.51 0,-1.32 0.437,-2.42 1.098,-3.51 -8.782,5.7 -17.559,11.41 -25.68,17.34 -7.903,3.51 -15.801,7.9 -23.922,11.63 l 0,0 z m 66.719,-41.05 c 5.488,-3.07 10.316,-6.15 10.972,-9.44 -3.511,3.29 -7.242,6.37 -10.972,9.44 l 0,0 z m 12.074,-10.54 c 4.387,-0.87 14.703,-7.02 14.703,-11.852 8.559,0 17.121,-22.61 22.387,-22.61 l 0,-13.828 -7.024,-6.809 c -3.293,0 -6.804,-1.753 -8.562,-1.753 -3.731,0 -8.336,-0.438 -13.164,-1.317 8.558,9 11.847,21.293 8.558,34.024 -3.73,9.222 -9.656,17.125 -16.898,24.145 l 0,0 z M 789.93,928.219 c -7.024,-4.614 -26.34,-14.492 -38.848,-19.102 12.731,7.024 25.68,13.172 38.848,19.102 l 0,0 z M 768.641,755.23 c 15.363,-5.484 47.406,-8.777 53.988,-18 3.293,-5.046 15.363,-10.316 20.629,-10.316 0,-1.758 3.515,-5.269 5.269,-5.269 0,-0.438 0.438,-0.879 0.657,-1.317 -26.774,11.414 -52.672,25.027 -80.106,34.465 -0.219,0 -0.219,0.219 -0.437,0.437 l 0,0 z m 196.863,-72.441 c 17.121,-0.879 34.461,-2.195 47.196,-7.023 -16.47,1.093 -32.052,3.511 -47.196,7.023"
         style="fill:#646167;fill-opacity:1;fill-rule:nonzero;stroke:none"
         id="path124" /><path
         d="m 319.816,1020.86 c -2.191,-6.81 -3.507,-14.06 -7.679,-19.76 -21.731,-28.1 -66.059,-24.807 -98.324,-32.053 -9,-1.317 -18.657,-0.875 -27.215,-3.949 -7.024,-2.414 -25.239,-18.223 -28.969,-24.809 -7.024,-12.949 2.191,-42.586 4.168,-57.516 l -1.754,-0.656 c -9.219,16.024 -20.633,45.879 -13.391,63.664 4.172,9.657 24.145,29.633 33.36,33.805 24.582,10.973 63.211,9.66 90.863,10.973 24.363,2.418 33.801,12.951 48.941,30.301"
         style="fill:#78737f;fill-opacity:1;fill-rule:nonzero;stroke:none"
         id="path126" /><path
         d="m 834.699,936.121 -34.676,-23.93 c -5.484,-3.074 -11.632,-4.609 -17.117,-7.464 -28.312,-14.926 -42.359,-29.633 -35.117,-62.563 6.586,-20.418 10.973,-49.832 30.727,-61.906 5.265,-3.074 11.414,-3.731 16.898,-5.488 8.34,-2.633 16.68,-5.27 24.363,-9 5.926,-3.075 10.973,-7.465 16.899,-10.54 13.828,-7.023 30.508,-10.316 45.429,-14.269 46.09,-17.559 92.399,-28.098 140.245,-39.953 7.03,-2.414 13.17,-7.024 20.19,-9.438 6.15,-2.195 18.88,-2.414 22.39,-7.246 l -0.88,-1.097 c -5.27,3.734 -15.8,1.539 -22.6,3.074 -7.47,1.539 -14.05,5.707 -21.3,7.683 -39.502,6.805 -80.759,11.856 -118.728,24.59 l -51.574,14.485 c -21.293,5.488 -38.41,18.222 -59.043,25.464 -7.242,2.637 -14.703,4.172 -21.067,8.344 -24.144,15.805 -27.875,47.418 -34.898,73.102 -6.363,38.195 10.535,57.297 44.336,72.222 5.707,2.414 11.851,3.512 17.554,6.149 6.586,3.293 12.731,7.683 19.317,11.195 5.926,2.852 12.289,4.61 18.652,6.586"
         style="fill:#ffffff;fill-opacity:1;fill-rule:nonzero;stroke:none"
         id="path128" /><path
         d="m 834.699,936.121 -34.676,-23.93 c -5.484,-3.074 -11.632,-4.609 -17.117,-7.464 -28.312,-14.926 -42.359,-29.633 -35.117,-62.563 6.586,-20.418 10.973,-49.832 30.727,-61.906 5.265,-3.074 11.414,-3.731 16.898,-5.488 8.34,-2.633 16.68,-5.27 24.363,-9 5.926,-3.075 10.973,-7.465 16.899,-10.54 13.828,-7.023 30.508,-10.316 45.429,-14.269 46.09,-17.559 92.399,-28.098 140.245,-39.953 7.03,-2.414 13.17,-7.024 20.19,-9.438 6.15,-2.195 18.88,-2.414 22.39,-7.246 l -0.88,-1.097 c -5.27,3.734 -15.8,1.539 -22.6,3.074 -7.47,1.539 -14.05,5.707 -21.3,7.683 -39.502,6.805 -80.759,11.856 -118.728,24.59 l -51.574,14.485 c -21.293,5.488 -38.41,18.222 -59.043,25.464 -7.242,2.637 -14.703,4.172 -21.067,8.344 -24.144,15.805 -27.875,47.418 -34.898,73.102 -6.363,38.195 10.535,57.297 44.336,72.222 5.707,2.414 11.851,3.512 17.554,6.149 6.586,3.293 12.731,7.683 19.317,11.195 5.926,2.852 12.289,4.61 18.652,6.586"
         style="fill:#393536;fill-opacity:1;fill-rule:nonzero;stroke:none"
         id="path130" /><path
         d="m 834.699,936.121 -34.676,-23.93 c -5.484,-3.074 -11.632,-4.609 -17.117,-7.464 -28.312,-14.926 -42.359,-29.633 -35.117,-62.563 6.586,-20.418 10.973,-49.832 30.727,-61.906 5.265,-3.074 11.414,-3.731 16.898,-5.488 8.34,-2.633 16.68,-5.27 24.363,-9 5.926,-3.075 10.973,-7.465 16.899,-10.54 13.828,-7.023 30.508,-10.316 45.429,-14.269 46.09,-17.559 92.399,-28.098 140.245,-39.953 7.03,-2.414 13.17,-7.024 20.19,-9.438 6.15,-2.195 18.88,-2.414 22.39,-7.246 l -0.88,-1.097 c -5.27,3.734 -15.8,1.539 -22.6,3.074 -7.47,1.539 -14.05,5.707 -21.3,7.683 -39.502,6.805 -80.759,11.856 -118.728,24.59 l -51.574,14.485 c -21.293,5.488 -38.41,18.222 -59.043,25.464 -7.242,2.637 -14.703,4.172 -21.067,8.344 -24.144,15.805 -27.875,47.418 -34.898,73.102 -6.363,38.195 10.535,57.297 44.336,72.222 5.707,2.414 11.851,3.512 17.554,6.149 6.586,3.293 12.731,7.683 19.317,11.195 5.926,2.852 12.289,4.61 18.652,6.586"
         style="fill:#827f8a;fill-opacity:1;fill-rule:nonzero;stroke:none"
         id="path132" /><path
         d="m 815.168,767.746 c -2.637,-0.879 -6.363,-3.293 -6.363,-4.609 -3.512,0 -8.782,-1.539 -13.828,-1.539 l -1.754,-1.754 c 0,-0.879 0,-1.539 0.218,-2.199 19.532,-7.461 35.993,-19.317 56.407,-24.586 l 51.574,-14.485 c 37.969,-12.734 79.226,-17.785 118.728,-24.59 7.25,-1.976 13.83,-6.144 21.3,-7.683 6.8,-1.535 17.33,0.66 22.6,-3.074 l 0.88,1.097 c -3.51,4.832 -16.24,5.051 -22.39,7.246 -7.02,2.414 -13.16,7.024 -20.19,9.438 -47.846,11.855 -94.155,22.394 -140.245,39.953 -14.921,3.953 -31.601,7.246 -45.429,14.269 -5.926,3.075 -10.973,7.465 -16.899,10.54 -1.539,0.66 -3.074,1.316 -4.609,1.976"
         style="fill:#716d74;fill-opacity:1;fill-rule:nonzero;stroke:none"
         id="path134" /><path
         d="m 898.566,588.613 c 1.977,-5.269 3.075,-11.195 5.926,-16.246 3.293,-6.144 9.219,-10.758 11.633,-17.34 6.363,-17.343 1.316,-41.05 5.707,-59.929 l 5.703,-18.879 c 9.223,-21.078 10.977,-20.637 -3.726,-35.567 l 1.976,-18.66 c -7.687,-36.656 -27,-79.027 -50.043,-109.101 -16.023,-20.633 -21.508,-46.102 -41.043,-64.539 0.66,-10.977 0.66,-16.465 -7.461,-24.805 l -2.414,0.656 c 3.071,5.488 4.828,9.219 4.61,15.805 -0.661,11.418 -4.172,7.906 2.632,16.027 15.582,18.879 19.973,45.004 34.02,65.637 19.531,28.758 29.187,62.785 41.48,95.055 3.293,10.535 0,17.781 0.657,27.66 0.222,3.511 7.246,9.879 11.414,14.269 -10.094,25.242 -11.414,46.539 -10.317,74.637 0.223,6.586 1.098,13.391 -0.656,19.977 -1.535,6.148 -7.023,10.976 -9,17.125 -1.976,5.707 -1.098,12.07 -1.098,18.218"
         style="fill:#ffffff;fill-opacity:1;fill-rule:nonzero;stroke:none"
         id="path136" /><path
         d="m 857.086,305.207 c 4.172,-0.219 8.559,-0.437 12.949,-0.656 -12.07,-18.879 -18.215,-40.176 -35.336,-56.199 0.66,-10.977 0.66,-16.465 -7.461,-24.805 l -2.414,0.656 c 3.071,5.488 4.828,9.219 4.61,15.805 -0.661,11.418 -4.172,7.906 2.632,16.027 11.633,14.047 17.118,32.27 25.02,49.172"
         style="fill:#ffffff;fill-opacity:1;fill-rule:nonzero;stroke:none"
         id="path138" /><path
         d="m 855.113,300.816 c 3.95,-0.218 8.117,-0.437 12.289,-0.437 -10.316,-17.781 -16.898,-37.32 -32.703,-52.027 0.66,-10.977 0.66,-16.465 -7.461,-24.805 l -2.414,0.656 c 3.071,5.488 4.828,9.219 4.61,15.805 -0.661,11.418 -4.172,7.906 2.632,16.027 10.536,12.949 16.024,29.195 23.047,44.781"
         style="fill:#ffffff;fill-opacity:1;fill-rule:nonzero;stroke:none"
         id="path140" /><path
         d="m 853.137,296.426 c 3.949,-0.219 7.902,-0.438 11.633,-0.438 -8.782,-16.683 -15.586,-34.027 -30.071,-47.636 0.66,-10.977 0.66,-16.465 -7.461,-24.805 l -2.414,0.656 c 3.071,5.488 4.828,9.219 4.61,15.805 -0.661,11.418 -4.172,7.906 2.632,16.027 9.657,11.633 14.926,26.121 21.071,40.391"
         style="fill:#f4f5ec;fill-opacity:1;fill-rule:nonzero;stroke:none"
         id="path142" /><path
         d="m 851.16,292.035 c 3.953,-0.219 7.684,-0.437 11.414,-0.437 -7.902,-15.368 -14.707,-30.735 -27.875,-43.246 0.66,-10.977 0.66,-16.465 -7.461,-24.805 l -2.414,0.656 c 3.071,5.488 4.828,9.219 4.61,15.805 -0.661,11.418 -4.172,7.906 2.632,16.027 8.559,10.535 13.829,23.27 19.094,36"
         style="fill:#e2e4d8;fill-opacity:1;fill-rule:nonzero;stroke:none"
         id="path144" /><path
         d="m 849.406,287.645 c 3.512,-0.219 7.242,-0.438 10.973,-0.438 -7.024,-13.832 -13.824,-27.66 -25.68,-38.855 0.66,-10.977 0.66,-16.465 -7.461,-24.805 l -2.414,0.656 c 3.071,5.488 4.828,9.219 4.61,15.805 -0.661,11.418 -4.172,7.906 2.632,16.027 7.684,9.219 12.512,20.414 17.34,31.61"
         style="fill:#d3d4c6;fill-opacity:1;fill-rule:nonzero;stroke:none"
         id="path146" /><path
         d="m 847.43,283.254 c 3.511,-0.219 7.023,-0.438 10.535,-0.438 -6.145,-12.293 -12.508,-24.367 -23.266,-34.464 0.66,-10.977 0.66,-16.465 -7.461,-24.805 l -2.414,0.656 c 3.071,5.488 4.828,9.219 4.61,15.805 -0.661,11.418 -4.172,7.906 2.632,16.027 6.586,8.121 11.192,17.559 15.364,27.219"
         style="fill:#c4c6b5;fill-opacity:1;fill-rule:nonzero;stroke:none"
         id="path148" /><path
         d="m 845.457,278.863 c 3.508,-0.218 7.02,-0.437 10.313,-0.437 -5.489,-10.758 -11.633,-21.293 -21.071,-30.074 0.66,-10.977 0.66,-16.465 -7.461,-24.805 l -2.414,0.656 c 3.071,5.488 4.828,9.219 4.61,15.805 -0.661,11.418 -4.172,7.906 2.632,16.027 5.489,6.805 9.657,14.707 13.391,22.828"
         style="fill:#b3b6a3;fill-opacity:1;fill-rule:nonzero;stroke:none"
         id="path150" /><path
         d="m 843.48,274.477 c 3.293,-0.223 6.583,-0.442 9.875,-0.442 -4.828,-9.219 -10.535,-18 -18.656,-25.683 0.66,-10.977 0.66,-16.465 -7.461,-24.805 l -2.414,0.656 c 3.071,5.488 4.828,9.219 4.61,15.805 -0.661,11.418 -4.172,7.906 2.632,16.027 4.61,5.488 8.122,11.856 11.414,18.442"
         style="fill:#a4a692;fill-opacity:1;fill-rule:nonzero;stroke:none"
         id="path152" /><path
         d="m 898.566,588.613 c 1.977,-5.269 3.075,-11.195 5.926,-16.246 3.293,-6.144 9.219,-10.758 11.633,-17.34 6.363,-17.343 1.316,-41.05 5.707,-59.929 l 5.703,-18.879 c 9.223,-21.078 10.977,-20.637 -3.726,-35.567 l 1.976,-18.66 c -7.687,-36.656 -27,-79.027 -50.043,-109.101 -16.023,-20.633 -21.508,-46.102 -41.043,-64.539 0.66,-10.977 0.66,-16.465 -7.461,-24.805 l -2.414,0.656 c 3.071,5.488 4.828,9.219 4.61,15.805 -0.661,11.418 -4.172,7.906 2.632,16.027 15.582,18.879 19.973,45.004 34.02,65.637 19.531,28.758 29.187,62.785 41.48,95.055 3.293,10.535 0,17.781 0.657,27.66 0.222,3.511 7.246,9.879 11.414,14.269 -10.094,25.242 -11.414,46.539 -10.317,74.637 0.223,6.586 1.098,13.391 -0.656,19.977 -1.535,6.148 -7.023,10.976 -9,17.125 -1.976,5.707 -1.098,12.07 -1.098,18.218"
         style="fill:#393536;fill-opacity:1;fill-rule:nonzero;stroke:none"
         id="path154" /><path
         d="m 929.293,472.266 c -1.758,1.097 -3.949,1.316 -6.805,0.656 -1.754,-2.192 -3.949,-3.07 -6.582,-3.07 -1.316,3.511 -2.195,7.242 -3.293,10.976 -3.511,16.684 -3.949,32.926 -3.293,52.465 0.223,6.586 1.098,13.391 -0.656,19.977 -1.535,6.148 -7.023,10.976 -9,17.125 -1.976,5.707 -1.098,12.07 -1.098,18.218 1.977,-5.269 3.075,-11.195 5.926,-16.246 3.293,-6.144 9.219,-10.758 11.633,-17.34 6.363,-17.343 1.316,-41.05 5.707,-59.929 l 5.703,-18.879 c 0.66,-1.321 1.102,-2.637 1.758,-3.953"
         style="fill:#827f8a;fill-opacity:1;fill-rule:nonzero;stroke:none"
         id="path156" /><path
         d="m 932.148,458.875 c 0.657,0.879 1.094,1.758 1.536,2.633 2.632,-7.684 0.218,-10.754 -9.875,-20.856 l 1.976,-18.66 c -0.441,-2.41 -1.101,-4.828 -1.758,-7.461 -3.949,1.977 -9.66,0.219 -13.609,-0.441 l 0,0 -4.172,-3.07 0,0 c -0.219,0.218 -0.437,0.437 -0.437,0.875 0.437,1.539 1.097,3.078 1.757,4.832 3.293,10.535 0,17.781 0.657,27.66 0.222,3.511 7.246,9.879 11.414,14.269 -0.442,1.098 -0.875,1.977 -1.317,3.071 4.828,2.418 9.875,2.636 13.828,-2.852 l 0,0 z M 830.313,227.277 c -0.219,0.657 -0.219,1.098 -0.219,1.754 -0.879,0.442 -1.539,1.102 -2.199,1.539 1.101,2.852 1.539,5.707 1.539,9.438 -0.661,11.418 -4.172,7.906 2.632,16.027 4.168,5.27 7.684,11.195 10.754,17.34 3.735,1.539 7.028,1.102 10.317,0 -4.828,-9 -10.535,-17.562 -18.438,-25.023 0.442,-9.223 0.66,-14.711 -4.386,-21.075 l 0,0 z m 26.992,54.004 c 0,0 0,0 0,0.219 -3.071,0.656 -6.801,1.316 -10.094,1.098 3.73,8.34 7.023,17.121 10.973,25.465 3.511,2.414 7.461,4.171 12.07,4.828 1.976,0.66 3.73,0.66 5.488,0 l 0,0 c -7.683,-9.879 -12.949,-20.856 -18.437,-31.61 l 0,0 z m 22.605,37.317 c -0.437,0.441 -0.656,1.097 -1.094,1.976 -5.05,2.414 -9.66,0.656 -14.269,-1.097 0.441,0.66 1.098,1.535 1.539,2.195 5.266,7.902 9.875,16.023 13.824,24.367 1.758,0.879 3.516,1.098 5.707,-0.656 2.633,-2.199 4.61,-5.27 7.903,-5.711 -4.172,-7.242 -8.778,-14.488 -13.61,-21.074 l 0,0 z m 18.219,29.195 c -5.27,1.102 -9.219,6.148 -13.828,7.687 2.195,5.266 4.39,10.536 6.586,15.801 1.535,1.321 3.511,2.637 5.484,3.735 4.828,-1.973 7.242,-3.735 11.195,-7.903 -3.074,-6.586 -6.144,-12.953 -9.437,-19.32 l 0,0 z m 12.949,27.883 c -0.219,0 -0.219,0.219 -0.66,0.219 l 0,0 -10.754,7.683 0,0 c 5.047,9.438 5.707,22.832 19.754,23.93 0.219,-1.32 0.879,-2.637 1.754,-3.953 -2.852,-9.219 -6.145,-18.66 -10.094,-27.879"
         style="fill:#f7e2b7;fill-opacity:1;fill-rule:nonzero;stroke:none"
         id="path158" /><path
         d="m 667.023,590.371 -2.851,-17.781 c -0.442,-7.465 0.875,-15.152 -0.442,-22.613 -1.097,-6.368 -4.386,-11.856 -6.144,-18 -2.633,-10.098 -4.828,-27.661 -9.875,-36 -6.367,-11.637 -20.852,-18.223 -26.117,-30.957 -2.196,-5.485 -0.879,-11.852 -2.856,-17.34 -2.414,-6.586 -7.023,-12.075 -10.312,-18.223 -3.293,-6.144 -5.488,-12.949 -9.219,-18.879 -17.777,-23.051 -34.457,-49.832 -54.43,-70.906 -4.168,-4.168 -9.218,-7.684 -13.168,-12.293 -2.414,-2.414 -3.511,-5.926 -5.707,-8.781 -8.121,-10.098 -17.558,-23.926 -27.875,-31.614 -10.972,-8.121 -24.797,-8.777 -36.211,-15.144 -4.168,-2.414 -12.726,-14.93 -17.121,-13.172 l -29.847,12.734 0.218,1.973 c 10.758,-0.875 19.754,-3.949 29.629,-7.242 9.223,11.851 16.024,14.926 30.289,21.074 5.489,2.633 11.196,4.609 15.801,8.563 9,7.46 16.903,20.851 23.926,30.511 1.754,2.637 2.852,5.93 4.828,8.344 4.391,5.707 9.656,10.098 14.266,15.363 9.437,10.758 16.679,23.93 24.359,36.004 l 28.313,34.906 c 3.511,4.829 5.269,10.754 8.121,15.805 3.293,5.707 7.902,10.317 10.535,16.465 2.195,5.266 1.316,11.852 3.949,17.121 6.805,14.488 21.07,19.539 28.969,31.172 3.074,4.828 3.515,10.977 5.269,16.246 l 5.489,16.902 c 2.414,5.707 6.144,10.758 7.679,16.684 1.758,7.246 1.098,14.93 2.856,22.176 1.535,6.144 4.828,11.414 7.679,16.902"
         style="fill:#ffffff;fill-opacity:1;fill-rule:nonzero;stroke:none"
         id="path160" /><path
         d="m 496.934,301.914 c 5.707,0.441 11.191,0.879 16.898,1.098 -5.047,-6.149 -10.316,-11.852 -15.805,-16.028 -10.972,-8.121 -24.797,-8.777 -36.211,-15.144 -4.168,-2.414 -12.726,-14.93 -17.121,-13.172 l -29.847,12.734 0.218,1.973 c 10.758,-0.875 19.754,-3.949 29.629,-7.242 9.223,11.851 16.024,14.926 30.289,21.074 5.489,2.633 11.196,4.609 15.801,8.563 2.195,1.753 4.172,3.949 6.149,6.144"
         style="fill:#ffffff;fill-opacity:1;fill-rule:nonzero;stroke:none"
         id="path162" /><path
         d="m 492.324,297.086 c 5.926,0.437 11.633,0.879 17.34,1.316 -3.73,-4.39 -7.684,-8.343 -11.637,-11.418 -10.972,-8.121 -24.797,-8.777 -36.211,-15.144 -4.168,-2.414 -12.726,-14.93 -17.121,-13.172 l -29.847,12.734 0.218,1.973 c 10.758,-0.875 19.754,-3.949 29.629,-7.242 9.223,11.851 16.024,14.926 30.289,21.074 5.489,2.633 11.196,4.609 15.801,8.563 0.442,0.437 1.098,0.875 1.539,1.316"
         style="fill:#ffffff;fill-opacity:1;fill-rule:nonzero;stroke:none"
         id="path164" /><path
         d="m 485.52,292.258 c 6.582,0.437 13.168,0.875 19.753,1.312 -2.414,-2.632 -4.832,-4.828 -7.246,-6.586 -10.972,-8.121 -24.797,-8.777 -36.211,-15.144 -4.168,-2.414 -12.726,-14.93 -17.121,-13.172 l -29.847,12.734 0.218,1.973 c 10.758,-0.875 19.754,-3.949 29.629,-7.242 9.223,11.851 16.024,14.926 30.289,21.074 3.512,1.758 7.024,3.07 10.536,5.051"
         style="fill:#f4f5ec;fill-opacity:1;fill-rule:nonzero;stroke:none"
         id="path166" /><path
         d="m 473.887,286.766 c 8.781,0.66 17.558,1.32 26.117,1.757 -0.656,-0.437 -1.316,-1.097 -1.977,-1.539 -10.972,-8.121 -24.797,-8.777 -36.211,-15.144 -4.168,-2.414 -12.726,-14.93 -17.121,-13.172 l -29.847,12.734 0.218,1.973 c 10.758,-0.875 19.754,-3.949 29.629,-7.242 9,11.633 15.805,14.926 29.192,20.633"
         style="fill:#e2e4d8;fill-opacity:1;fill-rule:nonzero;stroke:none"
         id="path168" /><path
         d="m 462.477,281.5 c 10.093,0.656 19.968,1.316 29.847,1.973 -9.879,-5.047 -21.07,-6.364 -30.508,-11.633 -4.168,-2.414 -12.726,-14.93 -17.121,-13.172 l -29.847,12.734 0.218,1.973 c 10.758,-0.875 19.754,-3.949 29.629,-7.242 6.149,7.683 11.196,11.851 17.782,15.367"
         style="fill:#d3d4c6;fill-opacity:1;fill-rule:nonzero;stroke:none"
         id="path170" /><path
         d="m 454.574,276.449 c 7.684,0.438 15.364,1.098 22.824,1.535 -5.265,-1.754 -10.753,-3.289 -15.582,-6.144 -4.168,-2.414 -12.726,-14.93 -17.121,-13.172 l -29.847,12.734 0.218,1.973 c 10.758,-0.875 19.754,-3.949 29.629,-7.242 3.516,4.39 6.586,7.683 9.879,10.316"
         style="fill:#c4c6b5;fill-opacity:1;fill-rule:nonzero;stroke:none"
         id="path172" /><path
         d="m 416.387,270.742 c 4.386,0 8.777,0 12.949,0.219 5.047,-1.316 10.094,-3.07 15.359,-4.828 1.758,1.976 3.293,3.949 4.832,5.488 2.852,0.219 5.707,0.438 8.559,0.438 1.535,0.218 3.07,0.218 4.828,0.441 -0.437,-0.223 -0.656,-0.441 -1.098,-0.66 -4.168,-2.414 -12.726,-14.93 -17.121,-13.172 l -28.308,12.074"
         style="fill:#b3b6a3;fill-opacity:1;fill-rule:nonzero;stroke:none"
         id="path174" /><path
         d="m 425.824,266.789 c 5.485,0 10.754,0 16.239,0.223 0.878,-0.223 1.757,-0.66 2.632,-0.879 0.223,0.219 0.66,0.656 0.879,1.097 3.735,0 7.684,0.219 11.414,0.438 -4.172,-4.391 -9.218,-10.316 -12.293,-9 l -18.871,8.121"
         style="fill:#a4a692;fill-opacity:1;fill-rule:nonzero;stroke:none"
         id="path176" /><path
         d="m 667.023,590.371 -2.851,-17.781 c -0.442,-7.465 0.875,-15.152 -0.442,-22.613 -1.097,-6.368 -4.386,-11.856 -6.144,-18 -2.633,-10.098 -4.828,-27.661 -9.875,-36 -6.367,-11.637 -20.852,-18.223 -26.117,-30.957 -2.196,-5.485 -0.879,-11.852 -2.856,-17.34 -2.414,-6.586 -7.023,-12.075 -10.312,-18.223 -3.293,-6.144 -5.488,-12.949 -9.219,-18.879 -17.777,-23.051 -34.457,-49.832 -54.43,-70.906 -4.168,-4.168 -9.218,-7.684 -13.168,-12.293 -2.414,-2.414 -3.511,-5.926 -5.707,-8.781 -8.121,-10.098 -17.558,-23.926 -27.875,-31.614 -10.972,-8.121 -24.797,-8.777 -36.211,-15.144 -4.168,-2.414 -12.726,-14.93 -17.121,-13.172 l -29.847,12.734 0.218,1.973 c 10.758,-0.875 19.754,-3.949 29.629,-7.242 9.223,11.851 16.024,14.926 30.289,21.074 5.489,2.633 11.196,4.609 15.801,8.563 9,7.46 16.903,20.851 23.926,30.511 1.754,2.637 2.852,5.93 4.828,8.344 4.391,5.707 9.656,10.098 14.266,15.363 9.437,10.758 16.679,23.93 24.359,36.004 l 28.313,34.906 c 3.511,4.829 5.269,10.754 8.121,15.805 3.293,5.707 7.902,10.317 10.535,16.465 2.195,5.266 1.316,11.852 3.949,17.121 6.805,14.488 21.07,19.539 28.969,31.172 3.074,4.828 3.515,10.977 5.269,16.246 l 5.489,16.902 c 2.414,5.707 6.144,10.758 7.679,16.684 1.758,7.246 1.098,14.93 2.856,22.176 1.535,6.144 4.828,11.414 7.679,16.902"
         style="fill:#393536;fill-opacity:1;fill-rule:nonzero;stroke:none"
         id="path178" /><path
         d="m 650.781,502.781 c -1.754,0.875 -3.73,1.535 -5.926,1.754 -1.535,1.098 -3.289,1.317 -5.046,0.66 1.757,4.168 2.195,8.559 3.511,12.512 l 5.489,16.902 c 2.414,5.707 6.144,10.758 7.679,16.684 1.758,7.246 1.098,14.93 2.856,22.176 1.535,6.144 4.828,11.414 7.679,16.902 l -2.851,-17.781 c -0.442,-7.465 0.875,-15.152 -0.442,-22.613 -1.097,-6.368 -4.386,-11.856 -6.144,-18 -2.195,-7.684 -3.949,-20.2 -6.805,-29.196"
         style="fill:#827f8a;fill-opacity:1;fill-rule:nonzero;stroke:none"
         id="path180" /><path
         d="m 435.039,269.207 0,0 c 0,-1.977 -0.656,-3.953 -1.094,-5.93 l -19.097,8.125 0.218,1.973 c 7.247,-0.656 13.61,-2.191 19.973,-4.168 l 0,0 z m 7.024,-9.441 c 0.66,2.195 0.878,4.609 0.878,7.023 0.438,-0.219 1.098,-0.437 1.754,-0.656 9.223,11.851 16.024,14.926 30.289,21.074 5.489,2.633 11.196,4.609 15.801,8.563 4.172,3.511 8.34,8.558 12.074,13.828 3.512,-2.633 6.805,-5.489 10.317,-7.024 -4.832,-5.929 -9.879,-11.636 -15.149,-15.59 -10.972,-8.121 -24.797,-8.777 -36.211,-15.144 -4.168,-2.414 -12.726,-14.93 -17.121,-13.172 l -2.632,1.098 0,0 z m 77.035,50.269 c -3.731,1.758 -7.68,3.735 -11.192,6.367 2.414,3.516 4.61,6.805 6.805,9.879 1.754,2.637 2.852,5.93 4.828,8.344 3.512,4.609 7.899,8.559 11.852,12.73 3.511,-2.851 6.582,-7.242 9.875,-10.976 -3.293,-2.852 -6.805,-5.707 -9.657,-9 -2.414,-2.414 -3.511,-5.926 -5.707,-8.781 -2.195,-2.633 -4.386,-5.489 -6.804,-8.563 l 0,0 z m 27.215,31.176 c 8.121,9 15.8,18.66 23.265,28.758 -4.828,4.168 -7.902,9.656 -12.73,13.609 -6.364,-10.098 -12.731,-20.855 -20.192,-30.293 3.731,-3.953 6.805,-7.683 9.657,-12.074 l 0,0 z m 27.437,34.465 c -3.516,5.265 -5.488,12.512 -11.637,15.144 l 21.512,26.563 c 5.926,-0.438 9.219,-16.684 14.703,-5.488 0,5.929 -7.461,10.097 -8.34,15.148 0.879,2.195 1.977,4.391 3.075,6.586 3.289,2.633 5.046,6.148 6.144,9.879 2.195,3.07 4.391,6.144 5.926,9.66 2.195,5.266 1.316,11.852 3.949,17.121 4.172,9.219 11.633,14.488 18.438,20.195 5.925,-1.093 11.632,-2.191 13.386,6.368 2.852,0.878 4.61,0 6.586,-1.536 -6.586,-11.199 -20.851,-17.781 -25.898,-30.296 -2.196,-5.485 -0.879,-11.852 -2.856,-17.34 -2.414,-6.586 -7.023,-12.075 -10.312,-18.223 -3.293,-6.144 -5.488,-12.949 -9.219,-18.879 -8.562,-11.195 -16.898,-23.051 -25.457,-34.902"
         style="fill:#e1d0af;fill-opacity:1;fill-rule:nonzero;stroke:none"
         id="path182" /><path
         d="m 664.172,555.246 c -6.586,-16.683 -14.266,-32.93 -19.535,-47.855 -0.219,-0.661 -0.438,-1.321 -0.657,-2.196 0.219,-0.222 0.657,-0.441 0.875,-0.66 2.196,-0.219 4.172,-0.879 5.926,-1.754 2.856,8.996 4.61,21.512 6.805,29.196 1.758,6.144 5.047,11.632 6.144,18 0.219,1.757 0.442,3.511 0.442,5.269"
         style="fill:#77757d;fill-opacity:1;fill-rule:nonzero;stroke:none"
         id="path184" /><path
         d="m 853.578,184.25 c 0.219,6.805 -0.223,13.828 2.41,20.195 14.707,35.782 44.774,41.93 72.43,15.368 l -0.883,-2.196 c -10.75,2.196 -24.359,6.149 -34.894,3.735 -13.168,-2.856 -30.723,-26.786 -39.063,-37.102"
         style="fill:#f9e2b3;fill-opacity:1;fill-rule:nonzero;stroke:none"
         id="path186" /><path
         d="m 727.379,225.738 34.238,-9.437 c 10.094,-6.149 19.094,-18.442 26.992,-27.442 l 2.196,0.879 c -1.094,7.024 -1.754,14.051 -4.606,20.196 -14.047,29.418 -32.265,28.976 -58.82,15.804"
         style="fill:#fde6b3;fill-opacity:1;fill-rule:nonzero;stroke:none"
         id="path188" /><path
         d="m 656.707,260.207 c 8.34,-0.223 17.559,1.316 23.926,-4.172 14.922,-13.172 7.68,-41.269 -0.223,-56.418 l -2.851,0.219 -5.047,32.269 c -0.66,5.047 0.656,10.758 -1.758,15.149 -3.289,5.488 -9.438,8.781 -14.047,12.953"
         style="fill:#fde6b3;fill-opacity:1;fill-rule:nonzero;stroke:none"
         id="path190" /><path
         d="m 354.496,301.695 c 7.68,-3.293 16.461,-5.05 21.508,-11.636 7.461,-9.879 7.242,-40.832 -3.293,-47.637 l -2.195,1.098 c -0.438,8.125 -2.633,15.367 -4.61,23.269 -1.097,5.27 -0.218,10.539 -1.972,15.59 -2.196,6.805 -6.586,12.73 -9.438,19.316"
         style="fill:#ddcaa7;fill-opacity:1;fill-rule:nonzero;stroke:none"
         id="path192" /><path
         d="m 326.84,261.961 -14.047,-16.684 c -9.875,-15.144 -18.652,-30.511 -33.797,-40.832 l -1.098,0.879 c 3.512,17.563 9.219,38.637 25.02,49.176 7.023,4.828 15.363,5.926 23.922,7.461"
         style="fill:#adacb7;fill-opacity:1;fill-rule:nonzero;stroke:none"
         id="path194" /><path
         d="m 271.535,277.547 c -8.777,-19.977 -21.07,-51.586 -41.043,-62.563 l -0.879,0.438 c -2.191,13.609 13.828,40.832 22.387,49.832 5.266,5.707 12.512,8.781 19.535,12.293"
         style="fill:#a1a1ab;fill-opacity:1;fill-rule:nonzero;stroke:none"
         id="path196" /><path
         d="m 627.52,227.496 c -7.465,-18.223 -22.829,-45.223 -39.508,-55.762 l -0.657,0.661 c 2.196,29.855 12.731,43.246 40.165,55.101"
         style="fill:#bfbfce;fill-opacity:1;fill-rule:nonzero;stroke:none"
         id="path198" /><path
         d="m 736.16,191.055 c 2.41,-26.563 1.754,-49.172 -15.144,-70.907 l -0.879,0.219 c -0.66,20.199 -4.172,35.781 4.828,54.664 2.633,5.926 7.023,10.977 11.195,16.024"
         style="fill:#bfbfce;fill-opacity:1;fill-rule:nonzero;stroke:none"
         id="path200" /><path
         d="m 907.129,191.055 c 3.949,-24.367 11.41,-48.953 -9.879,-67.614 l -0.879,0.438 c -0.437,15.59 -2.851,33.59 0.879,48.516 1.758,7.027 5.926,12.734 9.879,18.66"
         style="fill:#bfbfce;fill-opacity:1;fill-rule:nonzero;stroke:none"
         id="path202" /><path
         d="m 1188.93,1151.91 c -3.07,-6.14 -7.02,-11.85 -9.66,-18.22 -3.07,-7.24 -3.73,-15.58 -6.36,-23.05 -2.42,-6.8 -5.93,-13.17 -9.22,-19.76 -9.88,-17.34 -18.65,-35.12 -27.65,-52.9 l -1.54,0 c -4.83,9 9.44,51.81 14.05,61.25 3.29,6.58 7.9,12.07 11.41,18.44 3.95,7.02 5.93,15.36 10.97,21.51 4.61,5.71 11.64,8.78 18,12.73"
         style="fill:#868090;fill-opacity:1;fill-rule:nonzero;stroke:none"
         id="path204" /><path
         d="m 1233.92,1027.66 c -6.8,-0.66 -13.61,-0.22 -19.97,-2.2 -8.34,-2.85 -21.29,-15.36 -28.97,-20.85 l -27.87,-19.098 -1.98,1.32 c 1.32,4.387 1.76,9 4.39,12.731 9.22,13.387 35.55,37.317 52.68,37.317 7.89,0 14.7,-5.27 21.72,-9.22"
         style="fill:#868090;fill-opacity:1;fill-rule:nonzero;stroke:none"
         id="path206" /><path
         d="m 1193.98,930.852 c 17.99,-10.758 19.53,-9.879 17.56,-30.954 l -0.44,-0.218 c -16.9,10.535 -16.03,11.195 -17.12,31.172"
         style="fill:#868090;fill-opacity:1;fill-rule:nonzero;stroke:none"
         id="path208" /><path
         d="m 394.219,1122.71 c 1.976,-10.53 1.976,-21.51 5.707,-31.61 3.074,-7.9 9.875,-13.61 15.801,-19.75 23.046,-22.39 46.312,-47.64 79.668,-53.57 l 21.289,12.95 c 35.336,13.4 59.699,22.84 67.16,64.11 4.609,20.85 9.875,41.48 14.265,62.34 l 3.512,0 c 0.879,-5.71 3.07,-11.41 2.852,-17.34 -0.219,-10.1 -3.731,-20.2 -4.387,-30.52 -0.66,-10.53 2.414,-21.51 0.219,-31.83 -4.391,-21.07 -22.825,-45.22 -40.606,-56.85 -8.777,-5.93 -19.531,-8.35 -28.75,-13.39 -8.336,-4.83 -25.457,-19.543 -35.992,-17.125 -41.48,9.656 -65.621,38.855 -91.301,70.025 -6.363,8.78 -13.605,17.78 -15.363,28.54 -1.754,11.42 3.074,22.83 5.926,34.02"
         style="fill:#ffffff;fill-opacity:1;fill-rule:nonzero;stroke:none"
         id="path210" /><path
         d="m 394.219,1122.71 c 1.976,-10.53 1.976,-21.51 5.707,-31.61 3.074,-7.9 9.875,-13.61 15.801,-19.75 23.046,-22.39 46.312,-47.64 79.668,-53.57 l 21.289,12.95 c 35.336,13.4 59.699,22.84 67.16,64.11 4.609,20.85 9.875,41.48 14.265,62.34 l 3.512,0 c 0.879,-5.71 3.07,-11.41 2.852,-17.34 -0.219,-10.1 -3.731,-20.2 -4.387,-30.52 -0.66,-10.53 2.414,-21.51 0.219,-31.83 -4.391,-21.07 -22.825,-45.22 -40.606,-56.85 -8.777,-5.93 -19.531,-8.35 -28.75,-13.39 -8.336,-4.83 -25.457,-19.543 -35.992,-17.125 -41.48,9.656 -65.621,38.855 -91.301,70.025 -6.363,8.78 -13.605,17.78 -15.363,28.54 -1.754,11.42 3.074,22.83 5.926,34.02"
         style="fill:#393536;fill-opacity:1;fill-rule:nonzero;stroke:none"
         id="path212" /><path
         d="m 394.219,1122.71 c 1.976,-10.53 1.976,-21.51 5.707,-31.61 3.074,-7.9 9.875,-13.61 15.801,-19.75 23.046,-22.39 46.312,-47.64 79.668,-53.57 l 21.289,12.95 c 35.336,13.4 59.699,22.84 67.16,64.11 4.609,20.85 9.875,41.48 14.265,62.34 l 3.512,0 c 0.879,-5.71 3.07,-11.41 2.852,-17.34 -0.219,-10.1 -3.731,-20.2 -4.387,-30.52 -0.66,-10.53 2.414,-21.51 0.219,-31.83 -4.391,-21.07 -22.825,-45.22 -40.606,-56.85 -8.777,-5.93 -19.531,-8.35 -28.75,-13.39 -8.336,-4.83 -25.457,-19.543 -35.992,-17.125 -41.48,9.656 -65.621,38.855 -91.301,70.025 -6.363,8.78 -13.605,17.78 -15.363,28.54 -1.754,11.42 3.074,22.83 5.926,34.02"
         style="fill:#fffef2;fill-opacity:1;fill-rule:nonzero;stroke:none"
         id="path214" /><path
         d="m 572.211,1570.32 -7.902,-44.34 -10.317,-39.29 c -2.41,-16.03 -1.754,-32.49 -4.387,-48.3 -2.414,-14.71 -5.707,-29.19 -10.535,-43.46 -4.386,-13.62 -12.07,-25.91 -16.679,-39.52 l -13.168,-43.68 c -8.782,-23.05 -16.899,-43.47 -22.387,-67.62 -11.191,-49.39 -32.043,-109.54 -0.219,-154.98 l -1.535,-1.98 c -2.855,0.88 -6.586,0.88 -8.562,3.08 -9.875,11.85 -19.09,24.58 -23.704,39.07 -11.41,36.66 -2.414,82.54 2.418,120.52 5.266,40.83 18.653,78.15 32.043,116.79 5.922,13.82 15.141,26.34 21.067,40.17 5.707,12.73 10.097,26.12 13.828,39.51 4.172,14.71 5.047,30.3 9.437,45.01 8.34,28.54 25.457,53.78 40.602,79.02"
         style="fill:#e7d2ba;fill-opacity:1;fill-rule:nonzero;stroke:none"
         id="path216" /><path
         d="m 646.172,1914.32 34.68,-23.27 c 20.628,6.15 39.941,13.83 60.574,19.32 l 3.293,-2.64 c -3.735,-12.95 -5.27,-27 -14.489,-36.66 -13.605,-14.27 -31.601,-21.73 -50.039,-27.66 -6.582,-1.97 -20.191,1.98 -22.824,8.78 -7.902,19.98 -9.219,40.83 -11.195,62.13"
         style="fill:#e7d2ba;fill-opacity:1;fill-rule:nonzero;stroke:none"
         id="path218" /><path
         d="m 701.48,1772.51 c 8.122,-18.66 10.973,-35.79 9.219,-55.98 -1.758,-21.51 -3.07,-43.47 -14.484,-61.69 -11.195,-18 -30.945,-28.32 -48.067,-40.83 l -3.73,2.42 14.047,55.97 c 9.656,38.42 13.605,71.57 43.015,100.11"
         style="fill:#e7d2ba;fill-opacity:1;fill-rule:nonzero;stroke:none"
         id="path220" /><path
         d="m 473.668,2019.69 c 11.633,-7.9 25.898,-15.59 35.996,-25.03 10.75,-10.09 17.996,-21.95 25.895,-34.02 7.902,-11.64 18.656,-23.93 25.457,-35.78 7.464,-13.18 12.511,-29.2 18.656,-43.25 3.512,-6.59 9,-11.86 12.293,-18.44 5.703,-11.63 6.805,-27.22 8.777,-39.96 2.414,-52.68 7.465,-104.27 -3.949,-156.07 l -0.879,0 c -1.754,7.02 -0.879,15.14 -0.879,22.39 l -1.097,20.63 c 0,7.02 1.097,13.83 0.878,20.64 -4.171,36.22 -6.144,73.75 -13.605,109.32 -3.516,14.49 -10.316,21.29 -16.461,34.24 -6.805,13.62 -9,29.42 -16.023,43.03 -3.075,6.15 -7.68,11.41 -11.192,17.34 -10.754,18 -20.41,38.86 -34.238,54.66 -4.609,5.27 -10.535,9.23 -15.801,14.06 -5.051,5.05 -9.437,10.53 -13.828,16.24"
         style="fill:#e7d2ba;fill-opacity:1;fill-rule:nonzero;stroke:none"
         id="path222" /><path
         d="m 704.992,2109.48 c 10.535,-9 23.703,-19.76 28.531,-33.15 5.047,-13.61 3.512,-35.79 4.172,-50.28 -0.879,-28.75 -17.777,-35.12 -39.945,-48.07 -36.652,-21.29 -85.375,-30.73 -125.539,-14.05 -11.195,4.61 -21.289,9.44 -32.918,13.61 l 0.219,1.32 c 5.922,-0.22 11.851,0 17.777,-1.1 6.145,-1.31 12.066,-4.17 18.215,-5.92 25.898,-7.47 52.453,-1.98 77.914,3.51 18.434,5.27 37.09,18.22 54.43,27 21.945,12.95 16.679,28.54 17.554,51.81 0.219,6.58 0.879,13.17 -0.656,19.53 -2.637,10.76 -14.047,25.91 -19.754,35.79"
         style="fill:#e7d2ba;fill-opacity:1;fill-rule:nonzero;stroke:none"
         id="path224" /><path
         d="m 506.59,2037.03 c 15.359,20.64 40.601,28.76 58.16,48.3 1.535,1.76 5.484,3.07 7.68,4.17 9,4.83 15.582,9.66 23.922,15.8 26.777,16.03 56.625,24.59 88.011,21.96 l 0,-0.88 c -22.828,-2.2 -39.726,-4.83 -60.793,-14.05 -20.414,-7.24 -34.679,-23.05 -54.871,-31.17 -16.461,-18.22 -43.015,-28.54 -62.109,-44.13"
         style="fill:#e7d2ba;fill-opacity:1;fill-rule:nonzero;stroke:none"
         id="path226" /><path
         d="m 725.844,1079.47 c 10.535,0 21.289,0.88 31.601,-1.32 11.196,-2.41 21.731,-7.02 32.266,-11.63 11.41,-4.83 23.262,-9 33.797,-15.59 8.996,-5.93 15.582,-14.49 23.047,-22.17 18.433,-18.44 33.797,-29.635 36.211,-58.174 0.879,-9.219 -3.95,-17.563 -7.024,-26.125 l -2.633,0.441 c -2.632,19.317 -4.609,32.27 -19.093,46.977 -7.024,7.246 -16.461,11.191 -24.364,17.341 -7.679,6.15 -14.265,13.61 -21.945,19.54 -26.996,17.78 -53.992,34.46 -81.863,50.71"
         style="fill:#878292;fill-opacity:1;fill-rule:nonzero;stroke:none"
         id="path228" /><path
         d="m 401.023,868.727 c 27.872,-15.368 60.356,-37.317 91.52,-43.907 22.605,-4.828 65.844,-1.976 86.473,8.344 14.922,7.465 26.336,20.414 38.625,31.609 l 25.023,20.856 3.949,-2.856 c -2.633,-10.535 -4.39,-21.293 -9.437,-30.949 -10.098,-18.879 -20.629,-37.98 -37.309,-51.371 -53.992,-43.027 -123.129,-29.195 -169.215,17.781 -13.828,14.051 -21.289,32.493 -29.629,50.493"
         style="fill:#817e8b;fill-opacity:1;fill-rule:nonzero;stroke:none"
         id="path230" /></g></g></svg>